<?xml version="1.0" encoding="utf-8"?>
<!-- Generator: Adobe Illustrator 21.0.2, SVG Export Plug-In . SVG Version: 6.00 Build 0)  -->
<svg version="1.1" id="Layer_1" xmlns="http://www.w3.org/2000/svg" xmlns:xlink="http://www.w3.org/1999/xlink" x="0px" y="0px"
	 viewBox="0 0 512 512" style="enable-background:new 0 0 512 512;" xml:space="preserve">
<style type="text/css">
	.st0{fill:#F05540;}
	.st1{fill:#F3705A;}
	.st2{fill:#FFD15C;}
	.st3{fill:#F7B64C;}
	.st4{fill:#415A6B;}
	.st5{fill:#344A5E;}
	.st6{fill:#8AD7F8;}
	.st7{fill:#FDC9A6;}
	.st8{fill:#683B0D;}
	.st9{fill:#EA9D2D;}
	.st10{fill:#E2E2E2;}
	.st11{fill:#D18D28;}
	.st12{fill:#FBB540;}
	.st13{fill:#E82F3E;}
	.st14{fill:#FF3444;}
</style>
<g>
	<rect x="294.9" y="110.8" class="st0" width="44.1" height="77"/>
	<rect x="278.1" y="71.5" class="st1" width="77.8" height="41.7"/>
	<path class="st2" d="M40.7,263.2v177.3h314.4V263.2C293.3,201.5,258.9,167,197.9,106l0,0C136.9,167.8,102.4,202.3,40.7,263.2z"/>
	<path class="st3" d="M355.9,263.2C294.1,201.5,259.7,167,198.7,106c-31.3,30.5-55.3,54.5-79.4,78.6s-48.1,48.1-78.6,78.6v36.1
		c61.8-61.8,96.3-96.3,157.2-157.2c61.8,61.8,96.3,96.3,157.2,157.2v4.8l0,0v-40.9L355.9,263.2L355.9,263.2z"/>
	<path class="st4" d="M169.8,440.5H75.2v-93c0-26.5,21.7-47.3,47.3-47.3l0,0c26.5,0,47.3,21.7,47.3,47.3V440.5z"/>
	<rect x="197.9" y="300.1" class="st5" width="123.5" height="108.3"/>
	<g>
		<rect x="210.7" y="313" class="st6" width="42.5" height="82.6"/>
		<rect x="266.1" y="313" class="st6" width="42.5" height="82.6"/>
	</g>
	<path class="st1" d="M384.8,230.4L217.1,62.7c-9.6-9.6-26.5-9.6-36.1,0L14.2,230.4c-9.6,9.6-9.6,26.5,0,36.1
		c9.6,9.6,26.5,9.6,36.1,0l149.2-149.2l149.2,149.2c9.6,9.6,26.5,9.6,36.1,0C394.4,256,394.4,240,384.8,230.4z"/>
</g>
<g>
	<path class="st7" d="M432.3,115h-46.1v28.7c0,4,3.2,7.2,7.2,7.2h10.2v14.3h28.7V115z"/>
	<path class="st7" d="M396.4,222.6L360.5,237h-38.9v-28.7h31.7l38.9-21.5L396.4,222.6z"/>
	<path class="st8" d="M468.1,258.5l4.1,50.2h-78.9l-4.1-86.1v-23c0-12.8,5.1-25.2,14.2-34.2l0.2-0.2l27.8-3.9
		c13.2-1.9,25.7,6.2,29.5,18.9l4.1,13.7L468.1,258.5z"/>
	<path class="st9" d="M472.2,308.7l-11.3,86.1l21.5,78.9h-28.7L422,401.9l-4.1-50.2l-21.5,50.2l7.2,71.7h-28.7l-21.5-78.9l40-86.1
		H472.2z"/>
	<path class="st10" d="M403.6,473.7v28.7h-43V488l14.3-14.3H403.6z"/>
	<path class="st10" d="M482.5,473.7v28.7h-43V488l14.3-14.3H482.5z"/>
	<path class="st11" d="M360.5,287.2h-86.1v-78.9h86.1V287.2z"/>
	<path class="st7" d="M465.1,193.9l9,42.2c1.1,5.2,0.8,10.7-1,15.7c-3.1,8.7-10.2,15.3-19,17.9l-132.4,38.9l-14.3-21.5l14.3-7.2
		v-7.2L432.3,237l-7.2-28.7L465.1,193.9z"/>
	<path class="st9" d="M432.3,122.2h-71.7c-4,0-7.2-3.2-7.2-7.2c0-4,3.2-7.2,7.2-7.2h71.7V122.2z"/>
	<path class="st9" d="M403.6,86.3h7.2c11.9,0,21.5,9.6,21.5,21.5H382C382,96,391.7,86.3,403.6,86.3z"/>
	<path class="st12" d="M360.5,215.4h-86.1v-7.2h86.1V215.4z"/>
	<path class="st13" d="M331.8,244.1l-14.3-7.2l-14.3,7.2v-35.9h28.7V244.1z"/>
	<path class="st14" d="M331.8,215.4h-28.7v-7.2h28.7V215.4z"/>
</g>
</svg>
