<svg id="Layer_1" data-name="Layer 1" xmlns="http://www.w3.org/2000/svg" viewBox="0 0 200 200"><defs><style>.cls-1{fill:#424242;}.cls-2{fill:#fdc928;}.cls-3{fill:#fff;}.cls-4{fill:#fd6e00;}.cls-5{fill:#1b5e20;}</style></defs><title>Icon</title><rect class="cls-1" x="93.5" y="37.36" width="13" height="66.18"/><rect class="cls-2" x="9.59" y="137.82" width="180.82" height="53.18" rx="6.13" ry="6.13"/><rect class="cls-3" x="87.37" y="159.09" width="25.26" height="10.64" rx="2.6" ry="2.6"/><path class="cls-4" d="M160,87.63a5.22,5.22,0,0,1,5,4.72,2.39,2.39,0,0,0,.69,1.36,10.62,10.62,0,0,1,3,6,81.14,81.14,0,0,0,4.32,8.58,14,14,0,0,1,3.41,6.86l.69,1.35a12.53,12.53,0,0,1,3.21,6.43l.42.81q.43,0,.16.34a64.87,64.87,0,0,0,3.93,7.87c1.76,1.6,2.33,3.88,3.31,5.92.2.42.19.93.63,1.23.37.51.68,1,.27,1.68-3.52-1.74-7.3-1.24-11-1.24q-78,0-156.07,0c-3.71,0-7.49-.5-11,1.24-.38-.72-.09-1.19.56-1.53a2.41,2.41,0,0,0,.69-1.35A14.07,14.07,0,0,1,15.6,131a38,38,0,0,0,3.09-6.16.81.81,0,0,1,.53-1.08,2.36,2.36,0,0,0,.7-1.35,14,14,0,0,1,3.4-6.86l.25-.47a14,14,0,0,1,3.37-6.77,39,39,0,0,0,3.12-6.23.81.81,0,0,1,.53-1.08,2.36,2.36,0,0,0,.7-1.36,14.09,14.09,0,0,1,3.4-6.84l.42-.8a5.32,5.32,0,0,1,5.16-4.53"/><path class="cls-5" d="M48.38,9H151.63A3.37,3.37,0,0,1,155,12.37V44.63A3.37,3.37,0,0,1,151.63,48H48.38A3.38,3.38,0,0,1,45,44.63V12.38A3.38,3.38,0,0,1,48.38,9Z"/></svg>