<svg id="Layer_1" data-name="Layer 1" xmlns="http://www.w3.org/2000/svg" viewBox="0 0 200 200"><defs><style>.cls-1{fill:#f44336;}.cls-2{fill:#fafafa;}.cls-3{fill:#37474f;}</style></defs><title>Icon</title><path class="cls-1" d="M178,60.07,140.93,23H94L8.32,108.72a11.89,11.89,0,0,0,0,16.79L75.5,192.68a11.88,11.88,0,0,0,16.79,0L178,107Z"/><circle class="cls-2" cx="138.48" cy="62.53" r="17.81" transform="translate(-3.66 116.23) rotate(-45)"/><path class="cls-3" d="M134.28,66.73a5.94,5.94,0,0,1,0-8.4l33.59-33.59a5.94,5.94,0,1,1,8.4,8.4L142.67,66.73A5.94,5.94,0,0,1,134.28,66.73Z"/><path class="cls-2" d="M79.7,96.12a17.81,17.81,0,1,1,25.19,0A17.83,17.83,0,0,1,79.7,96.12ZM96.49,79.33a5.94,5.94,0,1,0,0,8.4A5.94,5.94,0,0,0,96.49,79.33Z"/><path class="cls-2" d="M71.3,154.9a17.81,17.81,0,1,1,25.19,0A17.83,17.83,0,0,1,71.3,154.9ZM88.09,138.1a5.94,5.94,0,1,0,0,8.4A6,6,0,0,0,88.09,138.1Z"/><path class="cls-2" d="M37.71,121.31a5.94,5.94,0,0,1,3.66-10.11l92.37-8.4a5.94,5.94,0,1,1,1.06,11.82L42.43,123A5.93,5.93,0,0,1,37.71,121.31Z"/></svg>