<svg id="Layer_1" data-name="Layer 1" xmlns="http://www.w3.org/2000/svg" viewBox="0 0 200 200"><defs><style>.cls-1{fill:#6f6571;}.cls-2{fill:#6e6470;}.cls-3{fill:#5d5360;}.cls-4{fill:#5c535f;}.cls-5{fill:#5c525f;}.cls-6{fill:#4b3f4e;}.cls-7{fill:#ebe9eb;}.cls-8{fill:#4b404e;}.cls-9{fill:#fefefe;}.cls-10{fill:#4a3e4d;}.cls-11{fill:#d9d7da;}.cls-12{fill:#fedf7d;}.cls-13{fill:#fdce63;}.cls-14{fill:#eae8ea;}</style></defs><title>Icon</title><path class="cls-1" d="M132.52,100c-.39.54-.19,1.15-.2,1.72,0,4.31-.07,8.61-.1,12.92a3.63,3.63,0,0,1-2.58.48H88.79c-19.43,0-38.87-.11-58.3.07a10.08,10.08,0,0,1-10.36-10.38c.08-24.9,0-49.81,0-74.71,0-1.14.13-2.31-.79-3.22a2,2,0,0,1,1.27-.3l86.17,0c6.41,0,12.82,0,19.23,0,3.83,0,6.22,2.39,6.26,6.26,0,4.22,0,8.45,0,12.67,0,.53-.14,1.1.24,1.58a3.66,3.66,0,0,1,.46,2.44c0,6.65-.33,13.31-.18,19.94.17,8.19.05,16.37.18,24.56A41.92,41.92,0,0,1,132.52,100Z"/><path class="cls-2" d="M97,126.57v5.53a.41.41,0,0,0,.6.24,9.94,9.94,0,0,1,3.25-.2,1.7,1.7,0,0,1,1.34,3.06c-1.26,1.34-2.6,2.6-3.88,3.92-.29.3-.82.58-.57,1.08s.72.26,1.1.26h18.64a2.54,2.54,0,0,0,2.17-1,40.33,40.33,0,0,1,4.79-4.9,7.86,7.86,0,0,1,5.71-2.15c.94,0,1.89,0,2.83,0a2.45,2.45,0,0,1,2.47,1.32,6.48,6.48,0,0,1,.19,2.07q0,11.68,0,23.35a4,4,0,0,1-.38,2.31,3.21,3.21,0,0,1-2.41.5c-7.25,0-14.51,0-21.76,0-10.73,0-21.45,0-32.18,0s-21.65,0-32.48,0c-7.6,0-15.2-.18-22.79.05a9.21,9.21,0,0,1-9.22-9.26c.08-5.76,0-11.52,0-17.29,0-1.21-.16-2.27-1.31-2.92a3,3,0,0,1,1.87-.24l17.81-.07c1-.67,2.21-.45,3.34-.46s2.48-.06,3.72,0q4.07-.06,8.14,0c1.2,0,1.68-.45,1.66-1.66a8.39,8.39,0,0,1,.24-3.37.36.36,0,0,1,.46-.19c.83,1,.45,2.18.5,3.29.08,1.74.17,1.89,1.88,1.9,3.58,0,7.15,0,10.73,0,10.12.13,20.24-.1,30.37,0,2.31,0,2.27,0,2.37-2.31C96.31,128.47,95.76,127.26,97,126.57Z"/><path class="cls-3" d="M19.36,26.88c1.38-.12,1.29.79,1.29,1.73q0,38.32,0,76.64a9.23,9.23,0,0,0,6.08,9,6.94,6.94,0,0,0,2.62.41H132.22c.4,3.09-2.71,6-5.95,6-9.18-.07-18.36,0-27.54,0-.56,0-1.21-.23-1.68.33a5.87,5.87,0,0,1-1.48.14q-21.67,0-43.34,0a7.42,7.42,0,0,1-1.93-.13l-.55-.2c-9.57,0-19.14,0-28.72,0a2.79,2.79,0,0,1-1.6-.16c-3.44-1.38-4.69-3.21-4.69-6.9q0-40.16,0-80.31c0-3.25,1.3-5.37,3.89-6.39A3.1,3.1,0,0,1,19.36,26.88Z"/><path class="cls-1" d="M135.2,133.44a9.67,9.67,0,0,0-11.32,2.21c-1.41,1.59-3.18,2.87-4.33,4.7a1.28,1.28,0,0,1-1.28.55H98.13c-.48,0-1.08.13-1.27-.48s.38-.76.67-1.06c1.46-1.49,2.94-3,4.42-4.43.43-.43.92-.85.65-1.53a1.43,1.43,0,0,0-1.58-.84c-.94,0-1.89,0-2.83,0-.43,0-.93.13-1.15-.43l.58.13a8.94,8.94,0,0,1,6.27,0q12.41,0,24.83.05c6,0,12.09,0,18.13-.05a1.62,1.62,0,0,1,.79-.39,7.88,7.88,0,0,1,1.78-.1h30.37a6.43,6.43,0,0,1,2.07.17,2,2,0,0,1,.5.31c1,0,2.08,0,3.12.08a5.79,5.79,0,0,1,5.5,5.46c.07,4,0,8,0,12.06a2.56,2.56,0,0,1-2,.47q-22.86,0-45.71,0c-2.24,0-2.56-.35-2.57-2.63,0-4.17,0-8.34,0-12.51,0-2-.18-2.12-2.11-2.16A8.28,8.28,0,0,0,135.2,133.44Z"/><path class="cls-4" d="M13.19,132.55c1.41-.18,1.8.53,1.79,1.83,0,6.31,0,12.63,0,18.94,0,4.73,4.61,8.34,8.14,8.22,5.76-.2,11.53-.06,17.3-.06,7.84,0,15.68-.06,23.51,0,3.61,0,7.25.2,10.83.11,9.74-.24,19.47,0,29.2-.12,10.42-.08,20.83,0,31.25,0l.2.2a9.84,9.84,0,0,1-.19,5.77c-3.77,0-7.54.07-11.32.07q-47.83,0-95.66,0c-1.36,0-1.73.4-1.61,1.68a3.38,3.38,0,0,1-.31,2.46c-.62-.66-.45-1.5-.45-2.27,0-1-.37-1.46-1.4-1.45-2.49,0-5,0-7.46,0-.87,0-1.24.38-1.28,1.25s.24,1.81-.5,2.55c-.61-1-.31-2-.35-3,0-.65,0-1-.89-1.19a5.66,5.66,0,0,1-5-6q0-11.48,0-23A5.68,5.68,0,0,1,13.19,132.55Z"/><path class="cls-4" d="M135.2,133.44c-.06-.76.37-.91,1-.89,1.14,0,2.29.06,3.42,0s1.55.41,1.54,1.56c0,4.52,0,9,0,13.55,0,2.46-.26,2.19,2.26,2.19h47.51q0,3,0,6c-.76.67-1.69.48-2.56.48H144.6c-3,0-2.95,0-2.95,2.93a13.68,13.68,0,0,1-.05,2.38.68.68,0,0,1-.37.42,11.7,11.7,0,0,1-6-.53l0,0Q135.2,147.45,135.2,133.44Z"/><path class="cls-1" d="M138.19,47.22c1.84,0,3.68-.06,5.51,0,2.13,0,3.22,1.11,3.23,3.24,0,5.07,0,10.14,0,15.2q0,15.35,0,30.71c0,2.72-1,3.68-3.67,3.68-1.79,0-3.58,0-5.36,0a1.67,1.67,0,0,1-.22-1.14c.09-16.3,0-32.59,0-48.89C137.71,49,137.51,48,138.19,47.22Z"/><path class="cls-5" d="M138.19,47.22q0,25.2,0,50.41a6.76,6.76,0,0,1-.31,2.34l-5.36,0a3.24,3.24,0,0,1-.28-2.18c.61-6.34.15-12.68.26-19,.06-3.17-.28-6.35-.2-9.49.19-7.39.16-14.77.23-22.15A41.75,41.75,0,0,1,138.19,47.22Z"/><path class="cls-5" d="M141.16,161.78h.31c.38-.77,1.12-.76,1.81-.76q13.18,0,26.36,0c6.3,0,12.61,0,18.91,0,.86,0,1.84-.21,2.4.77a5.6,5.6,0,0,1-4.8,5.69c-.85.15-1,.43-1,1.21,0,1,.26,2.08-.34,3-.71-.68-.49-1.58-.49-2.39,0-1-.41-1.43-1.42-1.42q-3.64,0-7.29,0c-1,0-1.44.4-1.43,1.41,0,.72.15,1.51-.49,2.09a3.44,3.44,0,0,1-.26-2.32c.09-1.2-.27-1.61-1.54-1.6-5.66.07-11.32,0-17,0-4.66,0-9.33,0-14-.06C140.7,165.55,140.38,163.64,141.16,161.78Z"/><path class="cls-2" d="M191,161.78a2.81,2.81,0,0,0-1.73-.29H143.51a3.6,3.6,0,0,0-2,.29c-.62-1.74-.18-3.53-.28-5.3,0-.41.23-.63.65-.65l1.34,0h47.77Q190.95,158.79,191,161.78Z"/><path class="cls-5" d="M97,126.57c-.68,1.26-.31,2.62-.26,3.92.05,1.47-.46,1.8-1.85,1.79-7-.07-14,0-21,0-1.83,0-3.68.31-5.46.22-5.65-.29-11.29-.17-16.93-.21-.89,0-1.05-.39-1.08-1.17-.06-1.52.29-3.06-.21-4.56a.35.35,0,0,1,.19-.47,4.63,4.63,0,0,1,2.05-.25c3.67,0,7.35-.11,11,0,10.32.35,20.64-.18,31,0a3.73,3.73,0,0,1,2.57.48Z"/><path class="cls-6" d="M97,126.28c-5.35,0-10.71,0-16.06,0-2.82,0-5.62.54-8.44.31-7.42-.61-14.85-.11-22.27-.33a7.45,7.45,0,0,1,0-5.63H95.38c.57,0,1.21-.22,1.68.34A39.07,39.07,0,0,1,97,126.28Z"/><path class="cls-7" d="M147.44,132.25h-.6c0-2.38.12-4.76,0-7.13a5.87,5.87,0,0,1,1-3.42,2.69,2.69,0,0,1,2.6-1.09c7.28,0,14.56,0,21.84,0a.66.66,0,0,1,.07.74,38.08,38.08,0,0,1-4.42,4.61,3.73,3.73,0,0,1-2.92.84c-5.11-.22-10.22-.06-15.33-.09-1.51,0-1.63.21-1.73,1.75C147.78,129.73,148.21,131.06,147.44,132.25Z"/><path class="cls-6" d="M15.22,171.71c0-.35,0-.69,0-1,0-3.22,0-3.22,3.17-3.22,2.18,0,4.37.05,6.55,0,1.07,0,1.4.36,1.33,1.37s0,1.88,0,2.83a2.61,2.61,0,0,1-2.62,1.77c-1.92,0-3.84,0-5.75,0A2.76,2.76,0,0,1,15.22,171.71Z"/><path class="cls-8" d="M173.65,171.41a20.6,20.6,0,0,0,0-2.37c-.11-1.18.23-1.67,1.53-1.62,2.67.1,5.34.07,8,0,1.12,0,1.66.23,1.53,1.47a24.39,24.39,0,0,0,0,2.81,2.7,2.7,0,0,1-2.72,1.68c-1.88,0-3.76.05-5.63,0A2.63,2.63,0,0,1,173.65,171.41Z"/><path class="cls-8" d="M141.16,161.78c-.14,1.89.34,3.81-.29,5.67a43.15,43.15,0,0,1-5.67,0q0-3,0-6Z"/><path class="cls-2" d="M49.84,120.91a.31.31,0,0,0,0-.28h.37q0,2.82,0,5.63a.57.57,0,0,0,0,.28l-.1.08c-1.31-1.43-.78-3-.26-4.5v-.9Z"/><path class="cls-9" d="M72.31,38.37h44c3.46,0,4.29.84,4.29,4.33q0,29.54,0,59.07c0,3.25-.9,4.15-4.19,4.15l-85.62,0c-3.28,0-4.14-.87-4.14-4.18q0-29.91,0-59.82,0-3.48,3.3-3.49c8,0,15.91,0,23.86,0C60.34,38.33,66.9,38.64,72.31,38.37Z"/><path class="cls-10" d="M73.76,141.19h52.49a2.7,2.7,0,0,1,3,3.16,2.81,2.81,0,0,1-2.33,2.5,6.3,6.3,0,0,1-.89,0H20.88c-2.13,0-3-.89-2.94-3a2.64,2.64,0,0,1,2.72-2.68c3.68,0,7.36,0,11,0Z"/><path class="cls-11" d="M172.2,121.21c1.34,0,2.68,0,4,0,.41,0,1-.25,1.19.28s-.36.66-.62.93c-.83.85-1.68,1.68-2.52,2.53-.3.31-.76.61-.43,1.12s.66.27,1.07.25c1.88-.05,3.76,0,5.65-.06,1,0,1.56.38,1.51,1.51-.07,1.48,0,3,0,4.46H147.44c0-1.59,0-3.18,0-4.76,0-.79.3-1.22,1.13-1.2,5.5.09,11-.17,16.51.14a3.39,3.39,0,0,0,2.81-1A40.84,40.84,0,0,1,172.2,121.21Z"/><path class="cls-12" d="M51.62,56.13c.37-.36.84-.24,1.27-.24,13.51,0,27,0,40.52,0A6.37,6.37,0,0,1,100,62.46C99.86,69.21,100,76,100,82.71a66.07,66.07,0,0,1-10.69,0,32.44,32.44,0,0,0-6.24,0,17.3,17.3,0,0,1-2.08.14H60.07a9.35,9.35,0,0,1-2.8-.35,6.06,6.06,0,0,1-4.57-6.06c0-5.91,0-11.83,0-17.74A2.85,2.85,0,0,0,51.62,56.13Z"/><path class="cls-13" d="M51.62,56.13c1.22-.14,1.58.37,1.56,1.61-.07,6.21.09,12.42-.08,18.63a5.94,5.94,0,0,0,5.7,6c7.75.1,15.52.35,23.25-.07,5.62-.31,11.18.54,16.77.11a1.89,1.89,0,0,1,1.13.3,5.75,5.75,0,0,1-5.61,5.62q-20.78,0-41.56,0a5.72,5.72,0,0,1-5.63-5.62c-.06-7.05,0-14.1,0-21.15A5.61,5.61,0,0,1,51.62,56.13Z"/><path class="cls-14" d="M73.75,73.73c4.76,0,9.53,0,14.29,0,2.07,0,3,.92,3,2.8a2.75,2.75,0,0,1-3,2.89q-14.44,0-28.89,0a3.14,3.14,0,0,1-3.25-3c0-1.59,1.36-2.71,3.27-2.71H73.75Z"/></svg>