<svg id="Layer_1" data-name="Layer 1" xmlns="http://www.w3.org/2000/svg" viewBox="0 0 200 200"><defs><style>.cls-1{fill:#3d9bd5;}.cls-2{fill:#252525;}.cls-3{fill:#262626;}</style></defs><title>Icon</title><path class="cls-1" d="M106.67,66.88c-.38-4.42-2.92-6.77-7.32-6.77H22.28c-6.4,0-8.73,2.33-8.73,8.72,0,15.52.06,31-.05,46.55a9.48,9.48,0,0,0,3.48,8c2.6,2.1,3.41,4.72,3.39,8-.09,16.09,0,32.18,0,48.27A13.11,13.11,0,0,0,33.75,193H86.57A13.06,13.06,0,0,0,100,179.64c0-15.66.12-31.32-.08-47-.06-4.24.95-7.62,4.3-10.26a6.37,6.37,0,0,0,2.42-5.31q0-24.78.08-49.57C106.73,67.31,106.69,67.1,106.67,66.88ZM46.83,173.37c-.28,2,.9,4.63-.5,5.93s-3.86.34-5.86.3c-2.2,0-5.06,1-6.42-.45s-.36-4.13-.33-6.27-.93-4.72.44-6,3.85-.36,5.85-.31c2.2,0,5-1,6.42.46S46.65,171.15,46.83,173.37ZM34.17,127c1.2-1,3.85-.41,5.85-.34,2.2.07,5.15-1,6.39.47,1.06,1.27.22,4.12.22,6.27s1.1,4.7-.31,6-3.86.32-5.86.32-5,.91-6.27-.33-.45-4.22-.46-6.42S32.78,128.22,34.17,127Zm-.13,20c1.33-1.41,4.09-.41,6.22-.45s4.78-.9,6.08.31.21,4.1.52,6.22c-.31,2.13.93,5-.53,6.19-1.25,1-4,.37-6.07.35s-4.79.88-6.07-.33-.42-4.09-.45-6.22S32.82,148.36,34,147.08Zm32.69,31.3c0,.93-.36,1.28-1.28,1.27-3.53,0-7.06,0-10.6,0-.94,0-1.26-.34-1.25-1.27,0-3.53,0-7.06,0-10.59,0-1.14.56-1.29,1.48-1.27,1.73,0,3.46,0,5.19,0s3.46,0,5.19,0c.92,0,1.28.33,1.27,1.26Q66.68,173.08,66.73,178.38Zm-.48-19c-1.27,1.18-3.85.36-5.85.31-2.2,0-5,1-6.41-.47s-.34-4.13-.35-6.27-.86-4.59.33-5.85,3.95-.38,6-.48c1.8-.08,3.6,0,5.4,0,1,0,1.4.38,1.37,1.39-.05,1.8,0,3.6,0,5.77C66.47,155.42,67.65,158.07,66.25,159.37Zm.12-20.06c-1.33,1.41-4.09.45-6.21.45s-5,1-6.17-.46c-1-1.24-.21-4-.21-6.06s-.81-4.84.21-6.06c1.2-1.43,4-.42,6.18-.46s4.77-.9,6.07.32.42,4.09.46,6.21S67.58,138,66.37,139.31Zm19.81,40c-1.29,1.21-4,.36-6.07.32s-4.88,1-6.22-.45-.36-4-.33-6.07-1-4.88.45-6.21,4-.36,6.06-.33,5-1,6.18.46c1,1.23.21,4,.21,6.06S87.6,178,86.18,179.29Zm.1-20.07c-1.34,1.43-4.08.42-6.21.47s-4.77.9-6.05-.32-.45-4.08-.45-6.21-1-5,.45-6.17c1.22-1,4-.21,6-.21s4.85-1.15,6.21.31.34,4,.34,6.07S87.51,157.91,86.28,159.21Zm.36-26h0c0,1.58-.07,3.18,0,4.76.08,1.33-.24,1.94-1.75,1.89-3.24-.11-6.49-.07-9.73,0-1.15,0-1.7-.24-1.67-1.55.08-3.31.09-6.63,0-9.95,0-1.39.53-1.69,1.78-1.67,3.17.07,6.34.11,9.51,0,1.6-.06,2,.55,1.86,2S86.64,131.66,86.64,133.17Zm6.63-22.5c0,2.07-.49,2.65-2.61,2.63-10.24-.12-20.49-.05-30.73-.05s-20.49,0-30.73,0c-1.82,0-2.2-.48-2.18-2.31.09-11.9,0-23.8-.06-35.71,0-1.43.33-1.83,1.77-1.83q31.38.06,62.76,0c1.06,0,1.89-.12,1.88,1.51C93.26,86.88,93.21,98.78,93.28,110.68Z"/><path class="cls-2" d="M7,64.31c0-14.71,0-29.42,0-44.14C7,12.67,13,7,20.7,7Q42,7,63.36,7H178.12C187.74,7,193,12.34,193,22q0,52,0,103.93c0,8.16-5.66,14-13.79,14-23.6,0-47.2,0-70.8,0-1.55,0-2-.46-1.9-1.95.12-2.09,0-4.18,0-6.28,0-3.51,1.7-5.21,5.21-5.21,21.8,0,43.59,0,65.39,0,2,0,2.49-.5,2.48-2.48q-.1-50.67,0-101.34c0-1.9-.44-2.38-2.37-2.38q-77.3.08-154.6,0c-2,0-2.36.56-2.34,2.41.09,9.53,0,19.05.06,28.58,0,1.39,0,2.16-1.9,2.44C12.46,54.67,8.88,58.51,7,64.31Z"/><path class="cls-2" d="M166.49,73.49c0,14.57,0,29.14.05,43.71,0,2.07-.62,2.53-2.53,2.44-3.09-.15-6.2-.1-9.3,0-1.35,0-1.71-.41-1.7-1.72.06-6.2,0-12.41,0-18.61,0-23.44,0-46.89,0-70.33,0-1.81.55-2.16,2.18-2.09,3.1.12,6.21.14,9.3,0,1.62-.07,2,.38,2,2C166.46,43.77,166.49,58.63,166.49,73.49Z"/><path class="cls-2" d="M126.65,73.69c0,14.65,0,29.3,0,43.95,0,1.81-.32,2.52-2.33,2.45-4.5-.14-4.5,0-4.5-4.51q0-43.19-.05-86.38c0-2,.55-2.39,2.4-2.33,4.44.13,4.45,0,4.45,4.39q0,21.22,0,42.43Z"/><path class="cls-3" d="M146.56,73.47c0,14.86,0,29.72,0,44.59,0,1.66-.43,2.05-2,2-4.78-.09-4.79,0-4.79-4.82q0-43.07,0-86.14c0-1.79.41-2.29,2.22-2.24,4.61.12,4.62,0,4.62,4.61q0,21,0,42Z"/><path class="cls-2" d="M100,40.3c0,3.89,0,7.78,0,11.67,0,1.12-.13,1.66-1.47,1.62-3.45-.1-6.91-.09-10.37,0-1.26,0-1.57-.39-1.57-1.59q.07-11.77,0-23.55c0-1.06.21-1.56,1.42-1.54,3.53.06,7.06.06,10.59,0,1.22,0,1.4.48,1.39,1.53C100,32.37,100,36.34,100,40.3Z"/><path class="cls-2" d="M60.23,40.34c0,3.89,0,7.78,0,11.66,0,1.19-.25,1.61-1.51,1.58-3.45-.09-6.91-.08-10.36,0-1.19,0-1.61-.29-1.6-1.55q.08-11.77,0-23.54c0-1.22.34-1.61,1.56-1.59,3.45.06,6.91.07,10.36,0,1.26,0,1.57.39,1.55,1.59C60.2,32.42,60.24,36.38,60.23,40.34Z"/><path class="cls-3" d="M113.36,64.29a15.81,15.81,0,0,0-6.06-8.45c-.77-.51-.73-1.14-.73-1.86,0-8.44,0-16.89,0-25.33,0-1.27.26-1.75,1.65-1.77,5.17-.09,5.17-.15,5.17,4.94Q113.36,48.05,113.36,64.29Z"/><path class="cls-3" d="M73.52,40.28c0,3.89,0,7.78,0,11.67,0,1.14-.18,1.62-1.49,1.64-5.32.11-5.32.17-5.32-5.15,0-6.55,0-13.11,0-19.66,0-1.55.47-1.91,1.95-1.91,4.88,0,4.89,0,4.89,4.76Q73.53,36,73.52,40.28Z"/><path class="cls-3" d="M40.32,40.25c0,3.89-.06,7.79,0,11.68,0,1.37-.38,1.67-1.69,1.67-5.12,0-5.12,0-5.12-5.14,0-6.49,0-13,0-19.46,0-1.51.21-2.16,2-2.12,4.85.09,4.86,0,4.86,5Q40.32,36,40.32,40.25Z"/></svg>