<svg id="Layer_1" data-name="Layer 1" xmlns="http://www.w3.org/2000/svg" viewBox="0 0 200 200"><defs><style>.cls-1{fill:#004d6c;}.cls-2{fill:#63c5cb;}</style></defs><title>Icon</title><path class="cls-1" d="M189.44,39.16c0-6.51-3.2-9.5-9.85-9.53q-13.43-.07-26.85,0c-.92,0-2.22-.75-2.68.35,4.6,5.11,10.41,5.85,16.69,5.42,3.82-.26,7.69.19,11.5-.11,4.26-.35,5.49,1.33,5.47,5.49q-.22,42.92,0,85.83c0,3.41-.58,4.61-4.37,4.6q-79.36-.23-158.71,0c-3.79,0-4.39-1.17-4.38-4.59.13-26.53.08-53.07.08-79.6,0-11.67,0-11.6,11.61-11.69,7.69-.06,15.84,1.7,22.41-5.74-10.26,0-20.1,0-30,0-6.81,0-9.86,3.07-9.87,10q-.06,57.54,0,115.08c0,6.88,3.11,10.07,9.86,10.08q79.59,0,159.19,0c6.59,0,9.83-3.14,9.83-9.62Q189.51,97.19,189.44,39.16Zm-151,111.65c-2.2-.42-5.75,1.08-5.66-3,.08-3.52,3.2-2.81,5.48-2.85,2.49,0,5.82-.57,5.79,3.1C44,151.49,40.76,150.59,38.45,150.81Zm25.41-1c-1.41,1.44-3.28.74-5,.95-1.66-.23-3.5.47-4.89-1.06a2.5,2.5,0,0,1,.12-3.77c1.49-1.58,8.48-1.54,9.82.07A2.61,2.61,0,0,1,63.86,149.85Zm43.09.88H93.1c-1.88,0-3.1-1-3.15-2.84A2.69,2.69,0,0,1,92.61,145c4.92-.14,9.86-.14,14.79,0a2.74,2.74,0,0,1,2.65,2.89C110,149.82,108.84,150.74,106.95,150.74Z"/><path class="cls-2" d="M171.81,50.88c-.91-.64-1.85-1.24-2.8-1.82-21.67-13.44-43.4-26.81-65-40.41-3.26-2.05-5.56-1.68-8.6.23C74,22.36,52.42,35.69,30.92,49.12c-1.77,1.1-4.58,1.81-3.82,4.77S30.66,56,32.75,56q33.55.07,67.09,0h66.62c1.28,0,2.55,0,3.83-.06a2.47,2.47,0,0,0,2.58-1.74A2.89,2.89,0,0,0,171.81,50.88Zm-71.75-6.12A11.14,11.14,0,0,1,89,33.37a11,11,0,0,1,22,.35A11.1,11.1,0,0,1,100.06,44.76Z"/><path class="cls-2" d="M99.51,122.66H39.61c-7,0-7,0-7-7.21,0-1.91-.21-3.93.31-5.72,1.36-4.62,4.79-6.31,9.5-6.29,20.29.08,40.58,0,60.86,0,17.89,0,35.78,0,53.68,0,8.73,0,14.37,10,10,17.67-1.22,2.14-3.36,1.48-5.18,1.48Q130.67,122.69,99.51,122.66Z"/><path class="cls-1" d="M100,192.73q-16.51,0-33,0c-5.34,0-7.58-1.73-8-6.06-.79-7.72.69-10.32,6.49-11.47,2.83-.56,5.67-1.18,7.87-3.19,1.64-1.5,3.54-1.19,5.41-1.19,14,0,28.08,0,42.11,0,2.27,0,4.33.1,6.25,1.66,2.27,1.85,5.18,2.33,8,2.85,5.31,1,6.54,3.25,6,10.91-.33,4.6-2.46,6.49-7.59,6.51C122.32,192.76,111.15,192.73,100,192.73Z"/><path class="cls-2" d="M48.21,79.74c0-5,.09-9.9,0-14.85-.05-2.05.5-2.79,2.65-2.74,6.07.14,12.14.15,18.2,0,2.44-.06,2.89.95,2.87,3.11-.09,9.74-.11,19.48,0,29.22,0,2.5-.72,3.33-3.25,3.26q-8.62-.25-17.24,0c-2.43.07-3.37-.54-3.26-3.14C48.36,89.65,48.21,84.69,48.21,79.74Z"/><path class="cls-2" d="M128.14,80.07c0-4.78.13-9.57-.05-14.34-.09-2.57.46-3.71,3.36-3.6,5.57.22,11.16.14,16.73,0,2.25,0,3.47.26,3.43,3-.16,9.88-.13,19.76,0,29.64,0,2.43-.94,2.93-3.11,2.88-5.74-.12-11.48-.16-17.21,0-2.62.08-3.25-.9-3.17-3.32C128.25,89.64,128.14,84.85,128.14,80.07Z"/><path class="cls-2" d="M88.43,79.57c0-4.62.22-9.26-.08-13.86-.21-3.14,1-3.69,3.77-3.58,5.41.21,10.84.17,16.25,0,2.5-.07,3.63.38,3.58,3.29-.19,9.72-.16,19.44,0,29.16,0,2.61-.89,3.2-3.3,3.13-5.57-.16-11.16-.27-16.72,0-3.23.17-3.63-1.17-3.52-3.86C88.56,89.13,88.43,84.35,88.43,79.57Z"/></svg>