<svg xmlns="http://www.w3.org/2000/svg" xmlns:xlink="http://www.w3.org/1999/xlink" viewBox="0 0 240 240"><defs><style>.cls-1{isolation:isolate;}.cls-2{fill:#92b4d1;opacity:0.2;}.cls-3{fill:#a8cff0;}.cls-4,.cls-44{fill:#3f92d1;}.cls-12,.cls-42,.cls-5{fill:#fff;}.cls-6{fill:#03336e;}.cls-41,.cls-7{fill:#084c94;}.cls-8{fill:#f0f8ff;}.cls-9{fill:#ffd70f;}.cls-10{fill:#0ba19f;}.cls-11{fill:#0fbab8;}.cls-12,.cls-41,.cls-45,.cls-51{opacity:0.5;}.cls-13{opacity:0.7;}.cls-13,.cls-48,.cls-51,.cls-75{mix-blend-mode:multiply;}.cls-14{fill:#f1f2f2;opacity:0.1;}.cls-15{fill:#eceff0;opacity:0.14;}.cls-16{fill:#e7ebee;opacity:0.19;}.cls-17{fill:#e2e8ec;opacity:0.23;}.cls-18{fill:#dee5ea;opacity:0.27;}.cls-19{fill:#d9e1e8;opacity:0.31;}.cls-20{fill:#d4dee6;opacity:0.36;}.cls-21{fill:#cfdbe4;opacity:0.4;}.cls-22{fill:#cad7e2;opacity:0.44;}.cls-23{fill:#c5d4e0;opacity:0.49;}.cls-24{fill:#c0d1de;opacity:0.53;}.cls-25{fill:#bccddb;opacity:0.57;}.cls-26{fill:#b7cad9;opacity:0.61;}.cls-27{fill:#b2c7d7;opacity:0.66;}.cls-28{fill:#adc3d5;opacity:0.7;}.cls-29{fill:#a8c0d3;opacity:0.74;}.cls-30{fill:#a3bdd1;opacity:0.79;}.cls-31{fill:#9eb9cf;opacity:0.83;}.cls-32{fill:#9ab6cd;opacity:0.87;}.cls-33{fill:#95b3cb;opacity:0.91;}.cls-34{fill:#90afc9;opacity:0.96;}.cls-35{fill:#8bacc7;}.cls-36{fill:#eb4680;}.cls-37{fill:#ffde17;}.cls-38{fill:#2672ab;}.cls-39,.cls-43{fill:#72b5e8;}.cls-40{fill:#d1ebff;}.cls-42{fill-rule:evenodd;}.cls-43,.cls-44{opacity:0.9;}.cls-46{fill:url(#linear-gradient);}.cls-47{fill:url(#linear-gradient-2);}.cls-49{fill:url(#linear-gradient-3);}.cls-50{fill:url(#linear-gradient-4);}.cls-52{fill:#ffe585;mix-blend-mode:screen;}.cls-53{fill:url(#linear-gradient-5);}.cls-54{fill:url(#linear-gradient-6);}.cls-55{fill:url(#linear-gradient-7);}.cls-56{fill:url(#linear-gradient-8);}.cls-57{fill:url(#linear-gradient-9);}.cls-58{fill:url(#linear-gradient-10);}.cls-59{fill:url(#linear-gradient-11);}.cls-60{fill:url(#linear-gradient-12);}.cls-61{fill:url(#linear-gradient-13);}.cls-62{fill:url(#linear-gradient-14);}.cls-63{fill:url(#linear-gradient-15);}.cls-64{fill:url(#linear-gradient-16);}.cls-65{fill:url(#linear-gradient-17);}.cls-66{fill:url(#linear-gradient-18);}.cls-67{fill:url(#linear-gradient-19);}.cls-68{fill:url(#linear-gradient-20);}.cls-69{fill:#f76195;}.cls-70{fill:#f9b69e;}.cls-71{fill:#fccdb7;}.cls-72{fill:#022652;}.cls-73{fill:#001a46;}.cls-74{fill:#08488c;}.cls-75{fill:#d1d3d4;}.cls-76{fill:#d62d69;}</style><linearGradient id="linear-gradient" x1="52.42" y1="160.35" x2="52.43" y2="160.35" gradientUnits="userSpaceOnUse"><stop offset="0" stop-color="#b5bbcb"/><stop offset="0.23" stop-color="#eceff5"/><stop offset="0.54" stop-color="#9da7b3"/><stop offset="0.65" stop-color="#a0aab5"/><stop offset="0.75" stop-color="#abb3bd"/><stop offset="0.85" stop-color="#bdc2c9"/><stop offset="0.87" stop-color="#c2c6cd"/><stop offset="1" stop-color="#b9bdcb"/></linearGradient><linearGradient id="linear-gradient-2" x1="72.71" y1="160.35" x2="72.71" y2="160.35" xlink:href="#linear-gradient"/><linearGradient id="linear-gradient-3" x1="52.04" y1="155.94" x2="52.04" y2="155.94" gradientUnits="userSpaceOnUse"><stop offset="0" stop-color="#ffbb96"/><stop offset="0.23" stop-color="#fffbc9"/><stop offset="0.54" stop-color="#f9b673"/><stop offset="0.64" stop-color="#f9b876"/><stop offset="0.72" stop-color="#fabe81"/><stop offset="0.81" stop-color="#fcc993"/><stop offset="0.86" stop-color="#fed2a3"/><stop offset="0.97" stop-color="#ffc28c"/></linearGradient><linearGradient id="linear-gradient-4" x1="73.09" y1="155.94" x2="73.09" y2="155.94" xlink:href="#linear-gradient-3"/><linearGradient id="linear-gradient-5" x1="4236.1" y1="195.56" x2="4236.1" y2="195.56" gradientTransform="matrix(-1, 0, 0, 1, 4325.75, 0)" xlink:href="#linear-gradient-3"/><linearGradient id="linear-gradient-6" x1="4242.29" y1="195.56" x2="4242.29" y2="195.56" gradientTransform="matrix(-1, 0, 0, 1, 4325.75, 0)" xlink:href="#linear-gradient-3"/><linearGradient id="linear-gradient-7" x1="4242.91" y1="199.54" x2="4242.91" y2="199.54" gradientTransform="matrix(-1, 0, 0, 1, 4325.75, 0)" xlink:href="#linear-gradient-3"/><linearGradient id="linear-gradient-8" x1="4249.1" y1="199.54" x2="4249.1" y2="199.54" gradientTransform="matrix(-1, 0, 0, 1, 4325.75, 0)" xlink:href="#linear-gradient-3"/><linearGradient id="linear-gradient-9" x1="4249.72" y1="203.52" x2="4249.72" y2="203.52" gradientTransform="matrix(-1, 0, 0, 1, 4325.75, 0)" xlink:href="#linear-gradient-3"/><linearGradient id="linear-gradient-10" x1="4255.91" y1="203.52" x2="4255.92" y2="203.52" gradientTransform="matrix(-1, 0, 0, 1, 4325.75, 0)" xlink:href="#linear-gradient-3"/><linearGradient id="linear-gradient-11" x1="4256.53" y1="207.51" x2="4256.53" y2="207.51" gradientTransform="matrix(-1, 0, 0, 1, 4325.75, 0)" xlink:href="#linear-gradient-3"/><linearGradient id="linear-gradient-12" x1="4262.73" y1="207.51" x2="4262.73" y2="207.51" gradientTransform="matrix(-1, 0, 0, 1, 4325.75, 0)" xlink:href="#linear-gradient-3"/><linearGradient id="linear-gradient-13" x1="4243.3" y1="191.35" x2="4243.3" y2="191.35" gradientTransform="matrix(-1, 0, 0, 1, 4325.75, 0)" xlink:href="#linear-gradient-3"/><linearGradient id="linear-gradient-14" x1="4249.49" y1="191.35" x2="4249.5" y2="191.35" gradientTransform="matrix(-1, 0, 0, 1, 4325.75, 0)" xlink:href="#linear-gradient-3"/><linearGradient id="linear-gradient-15" x1="4250.11" y1="195.33" x2="4250.11" y2="195.33" gradientTransform="matrix(-1, 0, 0, 1, 4325.75, 0)" xlink:href="#linear-gradient-3"/><linearGradient id="linear-gradient-16" x1="4256.31" y1="195.33" x2="4256.31" y2="195.33" gradientTransform="matrix(-1, 0, 0, 1, 4325.75, 0)" xlink:href="#linear-gradient-3"/><linearGradient id="linear-gradient-17" x1="4256.92" y1="199.31" x2="4256.93" y2="199.31" gradientTransform="matrix(-1, 0, 0, 1, 4325.75, 0)" xlink:href="#linear-gradient-3"/><linearGradient id="linear-gradient-18" x1="4263.12" y1="199.31" x2="4263.12" y2="199.31" gradientTransform="matrix(-1, 0, 0, 1, 4325.75, 0)" xlink:href="#linear-gradient-3"/><linearGradient id="linear-gradient-19" x1="4263.74" y1="203.29" x2="4263.74" y2="203.29" gradientTransform="matrix(-1, 0, 0, 1, 4325.75, 0)" xlink:href="#linear-gradient-3"/><linearGradient id="linear-gradient-20" x1="4269.93" y1="203.29" x2="4269.93" y2="203.29" gradientTransform="matrix(-1, 0, 0, 1, 4325.75, 0)" xlink:href="#linear-gradient-3"/></defs><title>Features Img</title><g class="cls-1"><g id="Layer_1" data-name="Layer 1"><path class="cls-2" d="M176.08,204.75l10.12-5.69c2.63-1.52,2.3-4.17-.74-5.93L130.6,161.87c-3-1.75-7.64-1.95-10.27-.43l-10.12,5.69c-2.63,1.52-2.3,4.17.74,5.93l54.85,31.26C168.85,206.08,173.44,206.27,176.08,204.75Z"/><path class="cls-3" d="M185.56,58.33a.38.38,0,0,1-.38-.37q0-.75-.09-1.5a.38.38,0,0,1,.76-.07q.07.78.09,1.55a.38.38,0,0,1-.37.39Zm-.4-3.79a.38.38,0,0,1-.37-.31c-.09-.49-.19-1-.3-1.48a.38.38,0,1,1,.74-.17q.18.76.31,1.52a.38.38,0,0,1-.31.44Zm-.92-3.7a.38.38,0,0,1-.36-.27q-.23-.72-.49-1.43a.38.38,0,1,1,.72-.27q.27.73.5,1.46a.38.38,0,0,1-.25.48Zm-1.37-3.56a.38.38,0,0,1-.35-.22q-.31-.69-.66-1.36a.38.38,0,1,1,.68-.35q.35.69.67,1.39a.38.38,0,0,1-.35.54Zm-1.79-3.37a.38.38,0,0,1-.33-.18q-.4-.65-.82-1.27a.38.38,0,1,1,.63-.43q.43.63.84,1.3a.38.38,0,0,1-.33.58Zm-2.2-3.12a.38.38,0,0,1-.3-.14q-.48-.59-1-1.14a.38.38,0,0,1,.56-.52q.52.57,1,1.17a.38.38,0,0,1-.3.62ZM176.26,38a.38.38,0,0,1-.25-.1c-.38-.34-.77-.65-1.16-.95a.38.38,0,0,1,.46-.61c.4.31.81.64,1.2,1a.38.38,0,0,1-.25.67Zm-3.09-2.23a.38.38,0,0,1-.19-.05L171.65,35a.38.38,0,0,1,.38-.66l1.32.76a.38.38,0,0,1-.19.71Zm-3.3-1.91a.38.38,0,0,1-.19-.05l-1.32-.76a.38.38,0,0,1,.38-.66l1.32.76a.38.38,0,0,1-.19.71ZM166.56,32a.38.38,0,0,1-.19-.05L165,31.17a.38.38,0,0,1,.38-.66l1.32.76a.38.38,0,0,1-.19.71Z"/><path class="cls-4" d="M170.66,201.5,120.1,172.31c-5.7-3.29-10.33-12.13-10.33-19.73V17.95c0-3.87-3.18-4.72-1.25-6.11.07-.05,4.51-2.07,4.6-2.1a7.46,7.46,0,0,1,7,.41l50.56,29.19C176.36,42.62,181,51.46,181,59.06V193.7c0,4-1.31,6.92-3.38,8.24-.12.08-5.47,2.62-5.61,2.67C170.15,205.22,173.15,202.94,170.66,201.5Z"/><path class="cls-5" d="M166.73,203.3l-50.56-29.19c-5.7-3.29-10.33-12.13-10.33-19.73V19.74c0-7.6,4.62-11.1,10.33-7.81l50.56,29.19c5.7,3.29,10.33,12.13,10.33,19.73V195.49C177.06,203.1,172.44,206.59,166.73,203.3Z"/><path class="cls-3" d="M165.83,203.78,115.28,174.6c-5.7-3.29-10.33-12.13-10.33-19.73V20.23c0-7.6,4.62-11.1,10.33-7.81l50.56,29.19c5.7,3.29,10.33,12.13,10.33,19.73V196C176.16,203.58,171.54,207.08,165.83,203.78Z"/><path class="cls-6" d="M169.29,202.33a6.41,6.41,0,0,1-3.17-1l-50.29-29c-4.76-2.75-8.63-10.17-8.63-16.56V21c0-4.3,1.81-7.08,4.61-7.08a6.41,6.41,0,0,1,3.17,1l50.29,29c4.76,2.75,8.63,10.17,8.63,16.56v134.8C173.9,199.55,172.09,202.33,169.29,202.33Z"/><path class="cls-7" d="M108.37,156.58V22.46c0-5.58,3.39-8.14,7.58-5.73l49.21,28.41c4.18,2.42,7.58,8.9,7.58,14.48V193.74c0,5.58-3.39,8.14-7.58,5.73l-49.21-28.41C111.76,168.64,108.37,162.16,108.37,156.58Z"/><polygon class="cls-8" points="109.38 155.84 171.73 191.84 171.73 77.25 109.38 41.25 109.38 155.84"/><path class="cls-5" d="M160.77,52.42,167,56c.24.14.43,0,.43-.25A1,1,0,0,0,167,55l-6.24-3.6c-.24-.14-.43,0-.43.25A1,1,0,0,0,160.77,52.42ZM167,57.26l-6.24-3.6c-.24-.14-.43,0-.43.25a1,1,0,0,0,.43.74l6.24,3.6c.24.14.43,0,.43-.25A1,1,0,0,0,167,57.26Zm0,2.22-6.24-3.6c-.24-.14-.43,0-.43.25a1,1,0,0,0,.43.74l6.24,3.6c.24.14.43,0,.43-.25A1,1,0,0,0,167,59.49Z"/><path class="cls-5" d="M122.52,30.86c0,.66-.47.92-1,.59a2.29,2.29,0,0,1-1-1.79c0-.66.47-.92,1-.59A2.29,2.29,0,0,1,122.52,30.86Z"/><path class="cls-5" d="M119.38,29c0,.66-.47.92-1,.59a2.29,2.29,0,0,1-1-1.79c0-.66.47-.92,1-.59A2.29,2.29,0,0,1,119.38,29Z"/><path class="cls-5" d="M116.24,27.22c0,.66-.47.92-1,.59a2.29,2.29,0,0,1-1-1.79c0-.66.47-.92,1-.59A2.29,2.29,0,0,1,116.24,27.22Z"/><path class="cls-9" d="M129,40.45a5.55,5.55,0,0,1,.44-2.46A4.17,4.17,0,0,1,131,36.41,4.8,4.8,0,0,0,132.55,35a3.4,3.4,0,0,0,.43-1.78,3.3,3.3,0,0,0-.27-1.47,2,2,0,0,0-.78-.82q-1-.6-1,.85v1.58L129,32.23V30.79q0-1.79.77-2.31t2.24.34a5.8,5.8,0,0,1,2.24,2.25,6.53,6.53,0,0,1,.77,3.2,4.52,4.52,0,0,1-.56,2.31,5.68,5.68,0,0,1-1.94,1.83,3.87,3.87,0,0,0-1.21,1.08,2.4,2.4,0,0,0-.31,1.29v.32l3.84,2.22v2.11L129,42.05Z"/><path class="cls-9" d="M139.74,45.59l-3.86-2.23V41.26l3.68-7.85,2.21,1.27v10l1,.55v2.11l-1-.55v2.68l-2-1.17Zm0-2.11V37.73l0,0-2,4.61Z"/><path class="cls-9" d="M146.07,41.77l1.75,1-5.07,11.83-1.75-1Z"/><path class="cls-9" d="M151.67,50.75l-4.08-2.36V46.29l6.07,3.5v2l-3.16,10.91-2.06-1.19Z"/><path class="cls-10" d="M148.5,171,133,162.19a9.7,9.7,0,0,1-4.85-8.4v-8.94a3.59,3.59,0,0,1,5.39-3.11l15.5,8.84a9.7,9.7,0,0,1,4.85,8.4v8.94A3.59,3.59,0,0,1,148.5,171Z"/><path class="cls-11" d="M147.73,171.31l-15.5-8.84a9.7,9.7,0,0,1-4.85-8.4v-8.94a3.59,3.59,0,0,1,5.39-3.11l15.5,8.84a9.7,9.7,0,0,1,4.85,8.4v8.94A3.59,3.59,0,0,1,147.73,171.31Z"/><path class="cls-12" d="M148.27,150.87,132.78,142a3.57,3.57,0,0,0-4.05.32,3.56,3.56,0,0,1,3.86-.18l15.5,8.84a9.7,9.7,0,0,1,4.85,8.4v8.94a3.54,3.54,0,0,1-1.33,2.79,3.55,3.55,0,0,0,1.52-2.93v-8.94A9.7,9.7,0,0,0,148.27,150.87Z"/><path class="cls-4" d="M157.78,114.9,127.15,97v2.89l30.63,17.95Zm-11.3-1-11.25-6.49v1.9l11.25,6.49Zm-12.61-7.28-6.72-4v1.9l6.72,4Z"/><path class="cls-3" d="M123,103.36a.39.39,0,0,1-.2-.05l-6.67-3.85a.39.39,0,0,1-.2-.34V91.47a.39.39,0,0,1,.59-.34L123.18,95a.39.39,0,0,1,.2.34V103a.39.39,0,0,1-.39.39Zm-6.27-4.47,5.88,3.39V95.54l-5.88-3.39Z"/><polygon class="cls-11" points="117.34 96.13 119.7 100.19 125.73 96.79 124.29 94.82 120.03 99.02 119.25 95.87 117.34 96.13"/><path class="cls-4" d="M157.78,128.38l-30.63-17.95v2.89l30.63,17.95Zm-11.3-1-11.25-6.49v1.9l11.25,6.49Zm-12.61-7.28-6.72-4V118l6.72,4Z"/><path class="cls-3" d="M123,116.84a.39.39,0,0,1-.2-.05l-6.67-3.85a.39.39,0,0,1-.2-.34V105a.39.39,0,0,1,.59-.34l6.67,3.85a.39.39,0,0,1,.2.34v7.65a.39.39,0,0,1-.39.39Zm-6.27-4.47,5.88,3.39V109l-5.88-3.39Z"/><polygon class="cls-11" points="117.34 109.62 119.7 113.68 125.73 110.27 124.29 108.31 120.03 112.5 119.25 109.36 117.34 109.62"/><path class="cls-4" d="M157.78,142l-30.63-17.95v2.89l30.63,17.95Zm-11.3-1-11.25-6.49v1.9l11.25,6.49Zm-12.61-7.28-6.72-4v1.9l6.72,4Z"/><path class="cls-3" d="M123,130.46a.39.39,0,0,1-.2-.05l-6.67-3.85a.39.39,0,0,1-.2-.34v-7.65a.39.39,0,0,1,.59-.34l6.67,3.85a.39.39,0,0,1,.2.34v7.65a.39.39,0,0,1-.39.39ZM116.71,126l5.88,3.39v-6.74l-5.88-3.39Z"/><g class="cls-13"><path class="cls-14" d="M104.75,104.67l22.7,13.94c2.74.92,5,5.16,5,8.81v49.75c0,3.65-2.22,5.33-5,3.75l-22.7-12.6Z"/><path class="cls-15" d="M104.77,105.27l22.08,13.54c2.7.92,4.88,5.1,4.88,8.69v49.3c0,3.59-2.19,5.25-4.88,3.69l-22.08-12.27Z"/><path class="cls-16" d="M104.79,105.86,126.25,119c2.65.93,4.8,5,4.8,8.58v48.86c0,3.54-2.15,5.16-4.8,3.63l-21.46-11.94Z"/><path class="cls-17" d="M104.81,106.45l20.85,12.75c2.61.94,4.73,5,4.73,8.46v48.41c0,3.48-2.12,5.08-4.73,3.57L104.81,168Z"/><path class="cls-18" d="M104.83,107l20.23,12.35c2.57.94,4.65,4.92,4.65,8.34v48c0,3.42-2.08,5-4.65,3.52L104.83,168Z"/><path class="cls-19" d="M104.85,107.64l19.62,12c2.53,1,4.57,4.86,4.57,8.23v47.52c0,3.37-2,4.91-4.57,3.46l-19.62-10.94Z"/><path class="cls-20" d="M104.87,108.24l19,11.56c2.48,1,4.5,4.8,4.5,8.11V175c0,3.31-2,4.83-4.5,3.4l-19-10.61Z"/><path class="cls-21" d="M104.89,108.83,123.27,120c2.44,1,4.42,4.74,4.42,8v46.63c0,3.25-2,4.75-4.42,3.34l-18.38-10.28Z"/><path class="cls-22" d="M104.91,109.43l17.77,10.77c2.4,1,4.34,4.69,4.34,7.88v46.19c0,3.2-1.94,4.67-4.34,3.28l-17.77-9.94Z"/><path class="cls-23" d="M104.93,110l17.15,10.37c2.35,1,4.26,4.63,4.26,7.77V173.9c0,3.14-1.91,4.58-4.26,3.22l-17.15-9.61Z"/><path class="cls-24" d="M104.94,110.61l16.53,10c2.31,1,4.19,4.57,4.19,7.65v45.3c0,3.08-1.87,4.5-4.19,3.16l-16.53-9.28Z"/><path class="cls-25" d="M105,111.21l15.92,9.58c2.27,1,4.11,4.51,4.11,7.53v44.85c0,3-1.84,4.42-4.11,3.11L105,167.34Z"/><path class="cls-26" d="M105,111.8l15.3,9.18c2.23,1,4,4.45,4,7.42v44.41c0,3-1.81,4.33-4,3L105,167.25Z"/><path class="cls-27" d="M105,112.4l14.69,8.79c2.18,1,4,4.39,4,7.3v44c0,2.91-1.77,4.25-4,3L105,167.16Z"/><path class="cls-28" d="M105,113l14.07,8.39c2.14,1,3.88,4.33,3.88,7.19v43.52c0,2.86-1.74,4.17-3.88,2.93L105,167.07Z"/><path class="cls-29" d="M105,113.59l13.45,8c2.1,1,3.8,4.27,3.8,7.07v43.07c0,2.8-1.7,4.08-3.8,2.87L105,167Z"/><path class="cls-30" d="M105.06,114.18l12.84,7.6c2.06,1,3.72,4.21,3.72,7v42.63c0,2.74-1.67,4-3.72,2.81l-12.84-7.28Z"/><path class="cls-31" d="M105.08,114.77,117.3,122c2,1,3.65,4.15,3.65,6.84V171c0,2.68-1.63,3.92-3.65,2.76l-12.22-6.95Z"/><path class="cls-32" d="M105.1,115.37l11.6,6.81c2,1,3.57,4.1,3.57,6.72v41.74c0,2.63-1.6,3.84-3.57,2.7l-11.6-6.61Z"/><path class="cls-33" d="M105.12,116l11,6.41c1.93,1,3.49,4,3.49,6.61v41.3c0,2.57-1.56,3.75-3.49,2.64l-11-6.28Z"/><path class="cls-34" d="M105.14,116.56l10.37,6c1.89,1.06,3.41,4,3.41,6.49v40.85c0,2.51-1.53,3.67-3.41,2.58l-10.37-5.95Z"/><path class="cls-35" d="M105.16,117.15l9.76,5.62a8,8,0,0,1,3.34,6.38v40.41c0,2.46-1.49,3.59-3.34,2.52l-9.76-5.62Z"/></g><path class="cls-2" d="M43.36,193c.42,1.16-3.24,3.24-6.68,4.77-3.08,1.37-4,1-4.42-.19s1.8-3,5-4.19S42.94,191.81,43.36,193Z"/><path class="cls-36" d="M42.85,192.47a2.08,2.08,0,0,0-3.06-1.84s-3.45,2-3.46,2c-.26.16.17.16.17.63A3.28,3.28,0,0,0,38,195.82c.41.24.24.58.51.43l3.38-2A2.08,2.08,0,0,0,42.85,192.47Z"/><path class="cls-37" d="M37.3,192.77a1.06,1.06,0,0,0-1-.11s-3.43,2-3.42,2.05A2.08,2.08,0,0,0,35,198.26l3.37-2a1,1,0,0,0,.42-.94A3.28,3.28,0,0,0,37.3,192.77Z"/><ellipse class="cls-2" cx="52.86" cy="191.32" rx="2.33" ry="5.6" transform="translate(-138.78 139.62) rotate(-59.46)"/><path class="cls-37" d="M45.88,188.16a2.08,2.08,0,0,1,3.06-1.84s3.45,2,3.45,2c.27.16-.16.16-.16.63a3.28,3.28,0,0,1-1.49,2.57c-.41.24-.24.58-.51.43l-3.38-2A2.08,2.08,0,0,1,45.88,188.16Z"/><path class="cls-36" d="M51.42,188.46a1.06,1.06,0,0,1,1-.11s3.43,2,3.42,2.05a2.08,2.08,0,0,1-2.16,3.54l-3.37-2a1,1,0,0,1-.42-.94A3.28,3.28,0,0,1,51.42,188.46Z"/><path class="cls-2" d="M106.5,193.73a3.79,3.79,0,0,0,1.89-.46l17.48-9.06a2,2,0,0,0,1.08-1.73,2.33,2.33,0,0,0-1.31-2L88.19,159.18a4.65,4.65,0,0,0-2.3-.58,3.79,3.79,0,0,0-1.89.46l-17.48,9.06a2,2,0,0,0-1.08,1.73,2.33,2.33,0,0,0,1.31,2l37.46,21.34A4.65,4.65,0,0,0,106.5,193.73Z"/><polygon class="cls-38" points="69.07 103.62 75.91 101.26 78.47 98.13 81.79 163.07 68.66 149.84 69.07 103.62"/><polygon class="cls-39" points="120.2 185.27 81.75 163.07 78.43 98.13 116.88 120.33 120.2 185.27"/><polygon class="cls-39" points="105.84 175.92 106.05 193.53 120.19 185.27 105.84 175.92"/><polygon class="cls-38" points="107.48 125.82 110.65 121.86 116.88 120.33 120.2 185.27 106.01 176.17 107.48 125.82"/><polygon class="cls-4" points="106.05 193.53 67.61 171.34 69.04 103.62 107.48 125.82 106.05 193.53"/><path class="cls-39" d="M83.3,120.34c0,.88-.62,1.24-1.4.8a3.07,3.07,0,0,1-1.4-2.41c0-.88.62-1.24,1.4-.8A3.07,3.07,0,0,1,83.3,120.34Z"/><path class="cls-39" d="M97.25,128.26c0,.88-.62,1.24-1.4.8a3.07,3.07,0,0,1-1.4-2.41c0-.88.62-1.24,1.4-.8A3.07,3.07,0,0,1,97.25,128.26Z"/><path class="cls-38" d="M82.54,120.58a3.07,3.07,0,0,1-1.4-2.41,1.4,1.4,0,0,1,.07-.42c-.42,0-.7.38-.7,1a3.07,3.07,0,0,0,1.4,2.41c.63.36,1.15.19,1.33-.37A1.19,1.19,0,0,1,82.54,120.58Z"/><path class="cls-38" d="M96.49,128.51a3.07,3.07,0,0,1-1.4-2.41,1.39,1.39,0,0,1,.07-.42c-.42,0-.7.38-.7,1a3.07,3.07,0,0,0,1.4,2.41c.63.36,1.15.19,1.33-.37A1.19,1.19,0,0,1,96.49,128.51Z"/><path class="cls-5" d="M89.1,111.75c0,.88-.62,1.24-1.4.8a3.07,3.07,0,0,1-1.4-2.41c0-.88.62-1.24,1.4-.8A3.07,3.07,0,0,1,89.1,111.75Z"/><path class="cls-5" d="M103,119.67c0,.88-.62,1.24-1.4.8a3.07,3.07,0,0,1-1.4-2.41c0-.88.62-1.24,1.4-.8A3.07,3.07,0,0,1,103,119.67Z"/><path class="cls-38" d="M88.34,112a3.07,3.07,0,0,1-1.4-2.41,1.4,1.4,0,0,1,.07-.42c-.42,0-.7.38-.7,1a3.07,3.07,0,0,0,1.4,2.41c.63.36,1.15.19,1.33-.37A1.19,1.19,0,0,1,88.34,112Z"/><path class="cls-38" d="M102.29,119.92a3.07,3.07,0,0,1-1.4-2.41,1.4,1.4,0,0,1,.07-.42c-.42,0-.7.38-.7,1a3.07,3.07,0,0,0,1.4,2.41c.63.36,1.15.19,1.33-.37A1.19,1.19,0,0,1,102.29,119.92Z"/><path class="cls-40" d="M87,113.57v-2.74a.68.68,0,0,1,1.36,0v3.51Z"/><path class="cls-40" d="M100.84,121.39V118.6a.68.68,0,1,1,1.36,0v3.56Z"/><path class="cls-39" d="M99.14,148.78a40.14,40.14,0,0,1-12.21-11.39l0,0c-3.58.8-7.84-.14-12.21-2.7l-.17-.1.24,3.14c.83,11,5.14,20.11,12.08,30.85l.17.1c6.94-2.72,11.25-6.81,12.08-16.9l.24-2.87Zm-3.71,3c-.58,7.07-3.6,9.94-8.46,11.85l-.12-.07C82,156,79,149.64,78.39,141.9l-.17-2.2.12.07c3.06,1.8,6,2.46,8.56,1.89l0,0a28.14,28.14,0,0,0,8.56,8l.12.07Z"/><path class="cls-40" d="M88.43,159v-4.1L92,156.94c.23.13.42,0,.42-.24v-2.76a.93.93,0,0,0-.42-.73l-3.57-2.06V147a.93.93,0,0,0-.42-.73l-2.4-1.39c-.23-.13-.42,0-.42.24v4.1l-3.37-1.95c-.23-.13-.42,0-.42.24v2.76a.93.93,0,0,0,.42.73L85.19,153v4.1a.93.93,0,0,0,.42.73l2.4,1.39C88.24,159.35,88.43,159.24,88.43,159Z"/><path class="cls-41" d="M90.63,144.25a6,6,0,0,1-3.27-1,12.91,12.91,0,0,1-5.88-10.85v-11a.68.68,0,1,1,1.36,0v11a11.56,11.56,0,0,0,5.27,9.71,4.65,4.65,0,0,0,7.18-3.89v-9a.68.68,0,1,1,1.36,0v9a5.92,5.92,0,0,1-3.14,5.28A6,6,0,0,1,90.63,144.25Z"/><path class="cls-40" d="M90.38,142.22a6,6,0,0,1-3.27-1,12.91,12.91,0,0,1-5.88-10.85v-11a.68.68,0,1,1,1.36,0v11a11.56,11.56,0,0,0,5.27,9.71A4.65,4.65,0,0,0,95,136.2v-9a.68.68,0,1,1,1.36,0v9a5.92,5.92,0,0,1-3.14,5.28A6,6,0,0,1,90.38,142.22Z"/><g class="cls-13"><path class="cls-14" d="M180.48,115l-61.65-33.7c-1.52-.51-2.75-2.86-2.75-4.88V48.91c0-2,1.23-3,2.75-2.08l61.65,33Z"/><path class="cls-15" d="M180.1,114.69,119.2,81.33c-1.49-.51-2.69-2.81-2.69-4.79V49.4c0-2,1.2-2.89,2.69-2L180.1,80Z"/><path class="cls-16" d="M179.72,114.34l-60.14-33c-1.45-.51-2.63-2.76-2.63-4.7V49.89c0-1.94,1.18-2.83,2.63-2l60.14,32.35Z"/><path class="cls-17" d="M179.33,114,120,81.3c-1.42-.51-2.58-2.71-2.58-4.61V50.39c0-1.9,1.15-2.77,2.58-1.95l59.38,32Z"/><path class="cls-18" d="M178.95,113.63,120.32,81.29c-1.39-.5-2.52-2.66-2.52-4.52V50.88c0-1.86,1.13-2.71,2.52-1.9l58.63,31.74Z"/><path class="cls-19" d="M178.57,113.27l-57.87-32c-1.36-.5-2.46-2.61-2.46-4.42V51.37c0-1.81,1.1-2.65,2.46-1.86L178.57,81Z"/><path class="cls-20" d="M178.18,112.92,121.07,81.26c-1.33-.5-2.41-2.56-2.41-4.33V51.86c0-1.77,1.08-2.59,2.41-1.82l57.11,31.14Z"/><path class="cls-21" d="M177.8,112.57,121.44,81.24c-1.3-.5-2.35-2.51-2.35-4.24V52.36c0-1.73,1.05-2.52,2.35-1.78L177.8,81.41Z"/><path class="cls-22" d="M177.42,112.21l-55.6-31c-1.27-.5-2.29-2.46-2.29-4.15V52.85c0-1.69,1-2.46,2.29-1.73l55.6,30.53Z"/><path class="cls-23" d="M177,111.86,122.19,81.21C121,80.71,120,78.8,120,77.15V53.34c0-1.65,1-2.4,2.24-1.69L177,81.88Z"/><path class="cls-24" d="M176.65,111.5,122.56,81.19c-1.2-.5-2.18-2.36-2.18-4V53.83c0-1.6,1-2.34,2.18-1.65l54.09,29.92Z"/><path class="cls-25" d="M176.27,111.15l-53.33-30a4.51,4.51,0,0,1-2.12-3.88v-23c0-1.56.95-2.28,2.12-1.6l53.33,29.62Z"/><path class="cls-26" d="M175.89,110.79,123.31,81.16a4.43,4.43,0,0,1-2.06-3.79V54.82c0-1.52.92-2.22,2.06-1.56l52.58,29.31Z"/><path class="cls-27" d="M175.5,110.44,123.68,81.15a4.35,4.35,0,0,1-2-3.7V55.31c0-1.48.9-2.16,2-1.52l51.82,29Z"/><path class="cls-28" d="M175.12,110.09l-51.06-29a4.27,4.27,0,0,1-2-3.6V55.8c0-1.44.87-2.1,2-1.47L175.12,83Z"/><path class="cls-29" d="M174.74,109.73,124.43,81.12a4.19,4.19,0,0,1-1.89-3.51V56.3c0-1.39.85-2,1.89-1.43l50.31,28.4Z"/><path class="cls-30" d="M174.35,109.38,124.8,81.1A4.11,4.11,0,0,1,123,77.68V56.79c0-1.35.82-2,1.84-1.39l49.55,28.1Z"/><path class="cls-31" d="M174,109,125.18,81.09a4,4,0,0,1-1.78-3.33V57.28c0-1.31.8-1.91,1.78-1.35L174,83.73Z"/><path class="cls-32" d="M173.59,108.67l-48-27.6a4,4,0,0,1-1.72-3.24V57.77c0-1.27.77-1.85,1.72-1.3l48,27.49Z"/><path class="cls-33" d="M173.2,108.31,125.92,81.06a3.87,3.87,0,0,1-1.67-3.15V58.27c0-1.23.75-1.79,1.67-1.26L173.2,84.2Z"/><path class="cls-34" d="M172.82,108,126.3,81A3.79,3.79,0,0,1,124.69,78V58.76c0-1.19.72-1.73,1.61-1.22l46.52,26.88Z"/><path class="cls-35" d="M172.44,107.61,126.67,81a3.72,3.72,0,0,1-1.55-3V59.25c0-1.14.7-1.67,1.55-1.17l45.77,26.58Z"/></g><path class="cls-4" d="M210.55,138.65,124.3,89c-5.82-3.36-10.58-12.45-10.58-20.21V63.28c0-7.76,4.76-11.35,10.58-8l86.25,49.66c5.82,3.36,10.58,12.45,10.58,20.21v5.51C221.12,138.41,216.36,142,210.55,138.65Z"/><path class="cls-3" d="M214,144.95h0a11,11,0,0,1-1.57-.18.38.38,0,0,1,.14-.75,10.1,10.1,0,0,0,1.46.17.38.38,0,0,1,0,.76Zm2.28-.17a.38.38,0,0,1-.07-.76,9,9,0,0,0,1.41-.4.38.38,0,1,1,.27.71,9.65,9.65,0,0,1-1.53.43Zm-6-.64-.14,0a14.47,14.47,0,0,1-1.42-.65.38.38,0,0,1,.35-.68,14.06,14.06,0,0,0,1.35.62.38.38,0,0,1-.14.74Zm9.48-.84a.38.38,0,0,1-.22-.7,9.21,9.21,0,0,0,1.13-.93.38.38,0,1,1,.53.55,9.9,9.9,0,0,1-1.23,1A.38.38,0,0,1,219.75,143.3Zm2.64-2.72a.38.38,0,0,1-.32-.59,11.14,11.14,0,0,0,.73-1.28.38.38,0,1,1,.69.34,12.08,12.08,0,0,1-.78,1.37A.38.38,0,0,1,222.4,140.58Zm1.58-3.46-.11,0a.38.38,0,0,1-.26-.47c.13-.46.25-.95.35-1.45a.38.38,0,0,1,.75.14c-.1.52-.22,1-.37,1.52A.38.38,0,0,1,224,137.12Zm.65-3.75h0a.38.38,0,0,1-.35-.41c0-.48.05-1,.05-1.5a.38.38,0,1,1,.76,0c0,.53,0,1.05-.05,1.55A.38.38,0,0,1,224.62,133.37Z"/><path class="cls-3" d="M209.47,139.08,123.22,89.42C117.4,86.06,112.64,77,112.64,69.21V63.7c0-7.76,4.76-11.35,10.58-8l86.25,49.66c5.82,3.36,10.58,12.45,10.58,20.21v5.51C220,138.84,215.29,142.43,209.47,139.08Z"/><path class="cls-40" d="M209.47,105.36,123.22,55.71c-3.73-2.15-7-1.43-8.9,1.4,1.91-2.6,5.11-3.19,8.71-1.11l86.25,49.66c5.82,3.36,10.58,12.45,10.58,20.21v5.51a11.88,11.88,0,0,1-1.67,6.6,11.57,11.57,0,0,0,1.87-6.89v-5.51C220,117.82,215.29,108.72,209.47,105.36Z"/><path class="cls-42" d="M151.67,89.83c0,6.69-4.73,9.38-10.55,6s-10.55-11.52-10.55-18.21,4.73-9.38,10.55-6S151.67,83.14,151.67,89.83Z"/><path class="cls-42" d="M176.39,104.54c0,6.69-4.73,9.38-10.55,6S155.28,99,155.28,92.36s4.73-9.38,10.55-6S176.39,97.85,176.39,104.54Z"/><path class="cls-42" d="M201.3,118.74c0,6.69-4.73,9.38-10.55,6s-10.55-11.52-10.55-18.21,4.73-9.38,10.55-6S201.3,112.05,201.3,118.74Z"/><path class="cls-43" d="M207.79,116.85v11l6-2.08ZM124.24,79.44v-11l-6,2.08Z"/><polygon class="cls-44" points="118.83 70.28 118.28 70.48 124.24 79.44 124.24 78.41 118.83 70.28"/><polygon class="cls-44" points="208.04 127.25 208.04 117.24 207.78 116.85 207.78 127.89 213.75 125.81 213.45 125.36 208.04 127.25"/><g class="cls-45"><path class="cls-5" d="M168.17,103.7a.29.29,0,0,0-.17.12,1.94,1.94,0,0,1-.24.3A1.8,1.8,0,0,0,168.17,103.7Z"/><path class="cls-5" d="M166.06,97.7a2.58,2.58,0,0,0,1.17,2c.43.25.81.19,1-.09a.85.85,0,0,1-.79-.1,2.58,2.58,0,0,1-1.17-2,1,1,0,0,1,.16-.58A.78.78,0,0,0,166.06,97.7Z"/><path class="cls-5" d="M161.32,95a2.58,2.58,0,0,0,1.17,2c.43.25.81.19,1-.09a.85.85,0,0,1-.79-.1,2.58,2.58,0,0,1-1.17-2,1,1,0,0,1,.16-.58A.78.78,0,0,0,161.32,95Z"/><path class="cls-5" d="M165.09,89.74c-2.59-1.49-4.88-1.41-6.36-.08,1.48-1.14,3.68-1.14,6.14.28,4.45,2.57,8.06,8.8,8.06,13.91a6.1,6.1,0,0,1-1.7,4.68c1.2-.92,1.93-2.59,1.93-4.87C173.15,98.55,169.54,92.31,165.09,89.74Z"/><path class="cls-5" d="M160.72,100.35a10.45,10.45,0,0,0,4.13,5.17c1.56.9,3,.84,3.87-.08-.88.72-2.21.72-3.64-.11a10.45,10.45,0,0,1-4.13-5.17.79.79,0,0,1,0-.54C160.67,99.67,160.57,100,160.72,100.35Z"/></g><path class="cls-37" d="M170.37,100.64l1.73-1c1.19-.68,1.19-2.9,0-5a6.24,6.24,0,0,0-2.16-2.28,2.18,2.18,0,0,0-2.16-.22l-1.73,1-1.73-3a6.24,6.24,0,0,0-2.16-2.28A2.18,2.18,0,0,0,160,87.7c-1.19.68-1.19,2.9,0,5l1.73,3-1.73,1c-1.19.68-1.19,2.9,0,5a6.24,6.24,0,0,0,2.16,2.28,2.18,2.18,0,0,0,2.16.22l1.73-1,1.73,3a6.24,6.24,0,0,0,2.16,2.28,2.18,2.18,0,0,0,2.16.22c1.19-.68,1.19-2.9,0-5Zm-2-7.39a1.55,1.55,0,0,1,1.55.16,4.84,4.84,0,0,1,2.19,3.78,1.52,1.52,0,0,1-.64,1.41l-1.73,1-3.1-5.35Zm-7.78-.93c-.86-1.48-.86-3.07,0-3.56a1.55,1.55,0,0,1,1.55.16,4.47,4.47,0,0,1,1.55,1.63l1.73,3-3.1,1.77Zm3.1,10.72a1.55,1.55,0,0,1-1.55-.16A4.83,4.83,0,0,1,160,99.1a1.52,1.52,0,0,1,.64-1.41l1.73-1,3.1,5.35Zm7.78,4.49a1.55,1.55,0,0,1-1.55-.16,4.47,4.47,0,0,1-1.55-1.63l-1.73-3,3.1-1.77,1.73,3a4.43,4.43,0,0,1,.64,2.15A1.52,1.52,0,0,1,171.49,107.54Z"/><path class="cls-4" d="M197.62,122.38l0,0c.64-1.08.44-3-.62-4.84l-6.4-11a6.86,6.86,0,0,0-2.38-2.5,2.39,2.39,0,0,0-2.38-.24c-1.31.75-1.31,3.19,0,5.46l2.79,4.81h0l3.61,6.22a6.34,6.34,0,0,0,2.91,2.76,2.11,2.11,0,0,0,1.84,0A1.69,1.69,0,0,0,197.62,122.38Zm-11.26-13.47c-1-1.79-1-3.74,0-4.33a1.89,1.89,0,0,1,1.89.19,5.43,5.43,0,0,1,1.89,2l2.79,4.81-3.77,2.15Z"/><ellipse class="cls-2" cx="64.48" cy="181.86" rx="12.08" ry="5.57"/><path class="cls-39" d="M72.71,157H52.42V180.9h0s0,.05,0,.08c0,3.26,4.54,5.91,10.14,5.91s10.14-2.64,10.14-5.91c0,0,0-.05,0-.08h0Z"/><path class="cls-8" d="M62.57,168c-5.6,0-10.14-2.64-10.14-5.91v13.22h0s0,.05,0,.08c0,3.26,4.54,5.91,10.14,5.91s10.14-2.64,10.14-5.91c0,0,0-.05,0-.08h0V162.07C72.71,165.33,68.17,168,62.57,168Z"/><path class="cls-46" d="M52.42,160.31v.08s0-.05,0-.08Z"/><path class="cls-47" d="M72.71,160.39v-.08h0S72.71,160.36,72.71,160.39Z"/><g class="cls-48"><path class="cls-49" d="M52,155.9V156s0-.06,0-.08Z"/><path class="cls-3" d="M62.57,162.47c-4.85,0-8.92-1.91-10.14-4.51v.66c1.22,2.6,5.29,4.51,10.14,4.51s8.92-1.91,10.14-4.51V158C71.49,160.56,67.41,162.47,62.57,162.47Z"/><path class="cls-50" d="M73.09,156v-.08h0S73.09,156,73.09,156Z"/></g><path class="cls-9" d="M73.09,153H52v3.31h0s0,.06,0,.08c0,3.39,4.71,6.13,10.53,6.13s10.53-2.74,10.53-6.13c0,0,0-.06,0-.08h0Z"/><g class="cls-51"><path class="cls-9" d="M65.79,162.21l.3-.06v-7.78h-.3Z"/><path class="cls-9" d="M67.11,161.9l.3-.08v-7.45h-.3Z"/><path class="cls-9" d="M68.44,161.47l.3-.13v-7h-.3Z"/><path class="cls-9" d="M64.47,162.4l.3,0v-8h-.3Z"/><path class="cls-9" d="M71.08,160l.3-.24V154h-.3Z"/><path class="cls-9" d="M72.4,158.54a4.6,4.6,0,0,0,.3-.52v-5.34h-.3Z"/><path class="cls-9" d="M69.76,160.85l.3-.16v-6.32h-.3Z"/><path class="cls-9" d="M63.15,162.49h.3v-8.12h-.3Z"/><path class="cls-9" d="M61.82,162.49h.3v-8.13h-.3Z"/><path class="cls-9" d="M59.18,162.18l.3.06v-7.87h-.3Z"/><path class="cls-9" d="M60.5,162.39l.3,0v-8.05h-.3Z"/><path class="cls-9" d="M57.85,161.85l.3.08v-7.57h-.3Z"/><path class="cls-9" d="M52.56,158.28a4.87,4.87,0,0,0,.3.47v-6.07h-.3Z"/><path class="cls-9" d="M53.89,159.84l.3.23v-6h-.3Z"/><path class="cls-9" d="M56.53,161.4l.3.12v-7.15h-.3Z"/><path class="cls-9" d="M55.21,160.76l.3.16v-6.55h-.3Z"/></g><ellipse class="cls-37" cx="62.57" cy="152.69" rx="10.53" ry="6.13"/><path class="cls-52" d="M62.57,158.66c-5.69,0-10.32-2.63-10.51-5.92,0,.07,0,.14,0,.21,0,3.39,4.71,6.13,10.53,6.13s10.53-2.74,10.53-6.13c0-.07,0-.14,0-.21C72.88,156,68.26,158.66,62.57,158.66Z"/><path class="cls-4" d="M66.33,172.69a16.63,16.63,0,0,1-3.76.42c-5.6,0-10.14-2.64-10.14-5.91v.58h0s0,.05,0,.08c0,3.26,4.54,5.91,10.14,5.91a16.63,16.63,0,0,0,3.76-.42Z"/><path class="cls-4" d="M66.33,170.69a16.63,16.63,0,0,1-3.76.42c-5.6,0-10.14-2.64-10.14-5.91v.58h0s0,.05,0,.08c0,3.26,4.54,5.91,10.14,5.91a16.63,16.63,0,0,0,3.76-.42Z"/><path class="cls-2" d="M64.25,211.84,51.5,204.47c-1.05-.61-.92-1.67.29-2.37l24.85-14.49a4.56,4.56,0,0,1,4.11-.17l12.75,7.36c1.05.61.92,1.67-.29,2.37L68.36,211.67A4.56,4.56,0,0,1,64.25,211.84Z"/><path class="cls-3" d="M64.28,211.53l-12.57-7.25c-1-.6-.91-1.64.29-2.34l24.6-14.35a4.5,4.5,0,0,1,4-.17l12.57,7.25c1,.6.91,1.64-.29,2.34l-24.6,14.35A4.5,4.5,0,0,1,64.28,211.53Z"/><g class="cls-48"><path class="cls-53" d="M89.66,195.55v0Z"/><path class="cls-54" d="M83.46,195.57v0h0Z"/></g><path class="cls-40" d="M83.46,194.69h6.2v1h0v0c0,1-1.39,1.8-3.1,1.8s-3.1-.81-3.1-1.8v-1Z"/><ellipse class="cls-5" cx="86.56" cy="194.6" rx="3.1" ry="1.8"/><g class="cls-48"><path class="cls-55" d="M82.85,199.53v0Z"/><path class="cls-56" d="M76.65,199.56v0h0Z"/></g><path class="cls-40" d="M76.65,198.67h6.2v1h0v0c0,1-1.39,1.8-3.1,1.8s-3.1-.81-3.1-1.8v-1Z"/><ellipse class="cls-5" cx="79.75" cy="198.58" rx="3.1" ry="1.8"/><g class="cls-48"><path class="cls-57" d="M76,203.51v0Z"/><path class="cls-58" d="M69.84,203.54v0h0Z"/></g><path class="cls-40" d="M69.84,202.65H76v1h0v0c0,1-1.39,1.8-3.1,1.8s-3.1-.81-3.1-1.8v-1Z"/><ellipse class="cls-5" cx="72.94" cy="202.56" rx="3.1" ry="1.8"/><g class="cls-48"><path class="cls-59" d="M69.22,207.49v0Z"/><path class="cls-60" d="M63,207.52v0h0Z"/></g><path class="cls-40" d="M63,206.64h6.2v1h0v0c0,1-1.39,1.8-3.1,1.8s-3.1-.81-3.1-1.8v-1Z"/><ellipse class="cls-5" cx="66.12" cy="206.55" rx="3.1" ry="1.8"/><g class="cls-48"><path class="cls-61" d="M82.45,191.34v0Z"/><path class="cls-62" d="M76.26,191.36v0h0Z"/></g><path class="cls-40" d="M76.26,190.48h6.2v1h0v0c0,1-1.39,1.8-3.1,1.8s-3.1-.81-3.1-1.8v-1Z"/><ellipse class="cls-5" cx="79.35" cy="190.39" rx="3.1" ry="1.8"/><g class="cls-48"><path class="cls-63" d="M75.64,195.32v0Z"/><path class="cls-64" d="M69.45,195.34v0h0Z"/></g><path class="cls-40" d="M69.45,194.46h6.2v1h0v0c0,1-1.39,1.8-3.1,1.8s-3.1-.81-3.1-1.8v-1Z"/><ellipse class="cls-5" cx="72.54" cy="194.37" rx="3.1" ry="1.8"/><g class="cls-48"><path class="cls-65" d="M68.83,199.3v0Z"/><path class="cls-66" d="M62.64,199.33v0h0Z"/></g><path class="cls-40" d="M62.63,198.44h6.2v1h0v0c0,1-1.39,1.8-3.1,1.8s-3.1-.81-3.1-1.8v-1Z"/><ellipse class="cls-5" cx="65.73" cy="198.35" rx="3.1" ry="1.8"/><g class="cls-48"><path class="cls-67" d="M62,203.28v0Z"/><path class="cls-68" d="M55.82,203.31v0h0Z"/></g><path class="cls-40" d="M55.82,202.42H62v1h0v0c0,1-1.39,1.8-3.1,1.8s-3.1-.81-3.1-1.8v-1Z"/><ellipse class="cls-5" cx="58.92" cy="202.33" rx="3.1" ry="1.8"/><path class="cls-37" d="M190.79,97.79a.38.38,0,0,1-.38-.38V95.88a.38.38,0,1,1,.76,0v1.53A.38.38,0,0,1,190.79,97.79Zm0-3.82a.38.38,0,0,1-.38-.38V92.06a.38.38,0,1,1,.76,0v1.53A.38.38,0,0,1,190.79,94Zm0-3.82a.38.38,0,0,1-.38-.38V88.25a.38.38,0,1,1,.76,0v1.53A.38.38,0,0,1,190.79,90.16Zm0-3.82a.38.38,0,0,1-.38-.38V84.43a.38.38,0,1,1,.76,0V86A.38.38,0,0,1,190.79,86.34Z"/><path class="cls-4" d="M58.83,106.95c0-5.82-4.11-12.91-9.18-15.84-2.45-1.41-4.67-1.6-6.31-.76h0L41,91.6l.66,1.14a9.29,9.29,0,0,0-.47,3.08c0,5.82,4.11,12.91,9.18,15.84a9.44,9.44,0,0,0,3,1.15L54,114l1.84-1C57.69,112.11,58.83,110,58.83,106.95Z"/><path class="cls-5" d="M56.87,108c0,5.82-4.11,8.16-9.18,5.24s-9.18-10-9.18-15.84,4.11-8.16,9.18-5.24S56.87,102.18,56.87,108Z"/><path class="cls-3" d="M37.12,108.36a.38.38,0,0,1-.34-.2q-.37-.68-.7-1.38a.38.38,0,0,1,.69-.33q.32.68.68,1.34a.38.38,0,0,1-.33.56Zm-1.58-3.47a.38.38,0,0,1-.36-.25q-.27-.73-.49-1.47a.38.38,0,1,1,.73-.22q.21.71.48,1.43a.38.38,0,0,1-.23.49Zm-1-3.67a.38.38,0,0,1-.37-.31c-.1-.52-.17-1-.23-1.54a.38.38,0,1,1,.76-.08c.05.48.12,1,.22,1.48a.38.38,0,0,1-.31.45Z"/><path class="cls-3" d="M56.67,108.12c0,5.82-4.11,8.16-9.18,5.24s-9.18-10-9.18-15.84,4.11-8.16,9.18-5.24S56.67,102.3,56.67,108.12Z"/><path class="cls-4" d="M58.83,81c0-5.82-4.11-12.91-9.18-15.84-2.45-1.41-4.67-1.6-6.31-.76h0L41,65.68l.66,1.14a9.29,9.29,0,0,0-.47,3.08c0,5.82,4.11,12.91,9.18,15.84a9.43,9.43,0,0,0,3,1.15L54,88l1.84-1C57.69,86.18,58.83,84.08,58.83,81Z"/><path class="cls-5" d="M56.87,82.08c0,5.82-4.11,8.16-9.18,5.24s-9.18-10-9.18-15.84,4.11-8.16,9.18-5.24S56.87,76.26,56.87,82.08Z"/><path class="cls-3" d="M37.93,83.82a.38.38,0,0,1-.32-.18q-.41-.66-.78-1.33a.38.38,0,0,1,.67-.37q.36.66.76,1.3a.38.38,0,0,1-.32.58Zm-1.79-3.37a.38.38,0,0,1-.35-.23q-.32-.71-.59-1.43a.38.38,0,0,1,.71-.27q.26.7.57,1.39a.38.38,0,0,1-.19.5A.38.38,0,0,1,36.14,80.45Zm-1.27-3.59a.38.38,0,0,1-.37-.28c-.13-.51-.25-1-.35-1.51a.38.38,0,0,1,.75-.14c.09.48.2,1,.33,1.46a.38.38,0,0,1-.27.47Zm-.64-3.76a.38.38,0,0,1-.38-.36q0-.59,0-1.16,0-.2,0-.4a.38.38,0,0,1,.38-.37h0a.38.38,0,0,1,.37.39q0,.19,0,.38,0,.55,0,1.11a.38.38,0,0,1-.35.41Zm.21-3.8h-.07a.38.38,0,0,1-.3-.45,12.66,12.66,0,0,1,.39-1.52.38.38,0,0,1,.73.24A11.9,11.9,0,0,0,34.81,69,.38.38,0,0,1,34.44,69.3Zm1.31-3.56a.38.38,0,0,1-.33-.57,10,10,0,0,1,.9-1.3.38.38,0,1,1,.59.49,9.12,9.12,0,0,0-.83,1.2A.38.38,0,0,1,35.74,65.74Zm2.54-2.81a.38.38,0,0,1-.22-.69,8.74,8.74,0,0,1,1.38-.8.38.38,0,1,1,.32.69,8,8,0,0,0-1.26.73A.38.38,0,0,1,38.28,62.93Zm3.5-1.44a.38.38,0,0,1-.06-.76,9.91,9.91,0,0,1,1.58-.14h0a.38.38,0,0,1,0,.76,9.08,9.08,0,0,0-1.46.13Z"/><path class="cls-3" d="M56.67,82.19c0,5.82-4.11,8.16-9.18,5.24s-9.18-10-9.18-15.84,4.11-8.16,9.18-5.24S56.67,76.37,56.67,82.19Z"/><path class="cls-4" d="M58.83,132.87c0-5.82-4.11-12.91-9.18-15.84-2.45-1.41-4.67-1.6-6.31-.76h0L41,117.52l.66,1.14a9.29,9.29,0,0,0-.47,3.08c0,5.82,4.11,12.91,9.18,15.84a9.43,9.43,0,0,0,3,1.15l.67,1.16,1.84-1C57.69,138,58.83,135.93,58.83,132.87Z"/><path class="cls-5" d="M56.87,133.92c0,5.82-4.11,8.16-9.18,5.24s-9.18-10-9.18-15.84,4.11-8.16,9.18-5.24S56.87,128.1,56.87,133.92Z"/><path class="cls-3" d="M51.61,145A10.67,10.67,0,0,1,50,144.9a.38.38,0,0,1,.11-.75,10.08,10.08,0,0,0,1.47.11.38.38,0,0,1,0,.76Zm-3.74-.67-.13,0a14.24,14.24,0,0,1-1.44-.61.38.38,0,1,1,.33-.69,13.71,13.71,0,0,0,1.37.57.38.38,0,0,1-.13.74Zm-3.39-1.73a.38.38,0,0,1-.21-.06c-.42-.28-.84-.59-1.26-.92a.38.38,0,0,1,.47-.6c.4.32.8.61,1.21.88a.38.38,0,0,1-.21.7Zm-2.94-2.42a.38.38,0,0,1-.27-.11q-.55-.54-1.07-1.13a.38.38,0,0,1,.57-.51q.5.57,1,1.09a.38.38,0,0,1-.27.65Zm-2.49-2.89a.38.38,0,0,1-.31-.16q-.46-.62-.88-1.27a.38.38,0,1,1,.64-.42q.41.63.86,1.24a.38.38,0,0,1-.08.53A.38.38,0,0,1,39.05,137.31Zm-2-3.23a.38.38,0,0,1-.34-.2q-.37-.68-.69-1.38a.38.38,0,1,1,.69-.32c.21.45.44.9.67,1.35a.38.38,0,0,1-.16.52A.37.37,0,0,1,37,134.08Zm-1.55-3.48a.38.38,0,0,1-.36-.25q-.26-.74-.48-1.48a.38.38,0,0,1,.73-.21q.21.72.46,1.43a.38.38,0,0,1-.23.49Zm-1-3.68a.38.38,0,0,1-.38-.32c-.09-.52-.16-1-.21-1.54a.38.38,0,0,1,.34-.42.39.39,0,0,1,.42.34c0,.49.11,1,.2,1.48a.38.38,0,0,1-.31.44Z"/><path class="cls-3" d="M56.67,134c0,5.82-4.11,8.16-9.18,5.24s-9.18-10-9.18-15.84,4.11-8.16,9.18-5.24S56.67,128.21,56.67,134Z"/><path class="cls-5" d="M52.79,137.18l0,0c.56-.93.38-2.61-.54-4.19l-5.54-9.56a6,6,0,0,0-2.06-2.17,2.07,2.07,0,0,0-2.06-.21c-1.14.65-1.14,2.77,0,4.73L45,129.91h0l3.13,5.39a5.49,5.49,0,0,0,2.52,2.39,1.83,1.83,0,0,0,1.6,0A1.47,1.47,0,0,0,52.79,137.18ZM43,125.5c-.9-1.55-.9-3.24,0-3.75a1.63,1.63,0,0,1,1.63.17,4.71,4.71,0,0,1,1.63,1.72l2.42,4.17-3.27,1.86Z"/><path class="cls-5" d="M51.61,105.2l1.42-.81c1-.56,1-2.39,0-4.09a5.14,5.14,0,0,0-1.78-1.87,1.79,1.79,0,0,0-1.78-.18l-1.42.81-1.42-2.46a5.14,5.14,0,0,0-1.78-1.87,1.79,1.79,0,0,0-1.78-.18c-1,.56-1,2.39,0,4.09l1.42,2.46-1.42.81c-1,.56-1,2.39,0,4.09a5.14,5.14,0,0,0,1.78,1.87,1.79,1.79,0,0,0,1.78.18l1.42-.81,1.42,2.46a5.14,5.14,0,0,0,1.78,1.87,1.79,1.79,0,0,0,1.78.18c1-.56,1-2.39,0-4.09ZM50,99.12a1.28,1.28,0,0,1,1.28.13,4,4,0,0,1,1.81,3.12,1.25,1.25,0,0,1-.53,1.16l-1.42.81-2.55-4.41Zm-6.41-.77c-.7-1.22-.7-2.53,0-2.93a1.28,1.28,0,0,1,1.28.13,3.68,3.68,0,0,1,1.28,1.34l1.42,2.46L45,100.81Zm2.56,8.83a1.28,1.28,0,0,1-1.28-.13A4,4,0,0,1,43,103.93a1.25,1.25,0,0,1,.53-1.16L45,102l2.56,4.41Zm6.41,3.7a1.28,1.28,0,0,1-1.28-.13A3.68,3.68,0,0,1,50,109.4l-1.42-2.46,2.55-1.46,1.42,2.46a3.64,3.64,0,0,1,.53,1.77A1.25,1.25,0,0,1,52.53,110.88Z"/><path class="cls-5" d="M50.08,85.11h0c-2.15,0-4.68-1.81-6.46-4.6a.42.42,0,0,1-.05-.32.42.42,0,0,1,.2-.26l7.78-4.44a.43.43,0,0,1,.32,0,.42.42,0,0,1,.25.21c2,3.86,1.85,7.74-.42,9A3.25,3.25,0,0,1,50.08,85.11Zm-5.51-4.68c1.58,2.32,3.76,3.85,5.51,3.85h0A2.42,2.42,0,0,0,51.29,84c1.77-1,1.88-4.27.29-7.54Z"/><path class="cls-5" d="M43.07,79.13l-.12,0a.42.42,0,0,1-.25-.21c-2-3.86-1.85-7.75.42-9a3.25,3.25,0,0,1,1.63-.41c2.15,0,4.68,1.81,6.46,4.6a.42.42,0,0,1,.05.32.42.42,0,0,1-.2.26l-7.78,4.44A.42.42,0,0,1,43.07,79.13Zm1.68-8.85a2.42,2.42,0,0,0-1.21.31c-1.77,1-1.88,4.27-.29,7.54l7-4C48.67,71.82,46.5,70.29,44.75,70.29Z"/><path class="cls-69" d="M64.76,111.23l-1-.54a.38.38,0,0,1-.16-.52A.39.39,0,0,1,64,110v-.39a.41.41,0,0,1,.39-.38.38.38,0,0,1,.38.39Zm-2.87-1.56a.38.38,0,0,1-.18,0l-1.35-.71a.38.38,0,1,1,.36-.68l1.35.71a.38.38,0,0,1-.18.72Zm2.55-2h0a.38.38,0,0,1-.38-.39l0-1.53a.39.39,0,0,1,.39-.38.38.38,0,0,1,.38.39l0,1.53A.38.38,0,0,1,64.44,107.7Zm.06-3.82h0a.38.38,0,0,1-.38-.39l0-1.53a.39.39,0,0,1,.39-.38.38.38,0,0,1,.38.39l0,1.53A.38.38,0,0,1,64.5,103.88Zm.06-3.82h0a.38.38,0,0,1-.38-.39l0-1.53a.4.4,0,0,1,.39-.38.38.38,0,0,1,.38.39l0,1.53A.38.38,0,0,1,64.56,100.07Zm8.8-.56a.38.38,0,0,1-.19-.05l-.34-.19a.38.38,0,0,1,.38-.66l.34.19a.38.38,0,0,1-.19.71ZM71,98.17a.38.38,0,0,1-.19-.05l-1.32-.76a.38.38,0,0,1,.38-.66l1.32.76a.38.38,0,0,1-.19.71Zm-3.3-1.91a.38.38,0,0,1-.19-.05l-1.32-.76a.38.38,0,0,1,.38-.66l1.32.76a.38.38,0,0,1-.19.71Zm-3.11,0h0a.38.38,0,0,1-.38-.39l0-1.53a.4.4,0,0,1,.39-.38.38.38,0,0,1,.38.39l0,1.53A.38.38,0,0,1,64.62,96.25Z"/><path class="cls-2" d="M185.17,228.58c-10.31,4.85-14.62,2-21.22-1.8s-9.35-7.29-1.64-11c7.54-3.67,14.66-.87,21.25,2.94S190.78,225.95,185.17,228.58Z"/><path class="cls-70" d="M158.91,155.87c.13,2.57-.14,11.74,2.11,17.58s.26,9.7-.26,12.87c-.81,5-.35,9.7.42,16.32s1.25,8.83.48,10.24-.26,3.4,4,4.56,9.22,1.2,8.75-2.7c-.16-1.28-4,.85-5-.26-1.52-1.7-2.63-4.24-1.93-11.24s1.54-11.31,1.93-15.16,1.16-8.61,1.93-13.75,1.61-20.43,1.61-20.43Z"/><path class="cls-71" d="M164.65,211.84c0-2.11.53-6.71.53-10.29s2.53-15.9,1.37-18.43c-1.67-3.65.63-8.64.63-10.53,0-1.74-.11-15-.11-17.81l-8.17,1.09c.13,2.57-.14,11.74,2.11,17.58s-.29,9.56-.81,12.72c-.81,5-.06,9.51.71,16.12s.71,9-.06,10.41.55,3.57,4.79,4.73a20,20,0,0,0,3.22.61l-1-.52S164.65,214,164.65,211.84Z"/><path class="cls-72" d="M161,212.18s-1.32,2.5-1.13,3.94,1.33,2.66,1.37,4-.05,1.58,0,1.63a6.78,6.78,0,0,0,1,.11l.57-.35V218a6.33,6.33,0,0,1,3.7.75,8.6,8.6,0,0,0,6.47.66c1.62-.7,3.14-4.35,3-5.09s-4.41.37-5.09.39a4.72,4.72,0,0,0-1,.07s2,.21,2.46.95.18,1.8-1.42,2.08-3.9-2.37-5.59-3S161.45,213.27,161,212.18Z"/><path class="cls-70" d="M168.25,164.61c.91,2.48,2.12,7.39,3.21,10.86s2.42,7.15,1.78,9.66-2.29,6.76-2.29,12.48.64,17.8-.19,19.59-1.61,3.49-1.16,4.58,3.73,1.43,6.87,3.5c3.34,2.2,7.39-2.31,5.78-3.28s-2.6-.38-3.16-.73A5.88,5.88,0,0,1,176,216c.13-2.89,3.34-21.84,4.24-26a70.15,70.15,0,0,0,1.67-11.69,99.83,99.83,0,0,0,0-15.8C181.35,157.93,165.68,157.61,168.25,164.61Z"/><path class="cls-71" d="M176.82,225.49l-2.37-3.18a8,8,0,0,0,.32-3.27,12.37,12.37,0,0,1-1.05-5.48c0-3.58,2.95-19.48,3.58-22s-.84-4.95-.63-7,2.21-7.79,1.69-11.8c-.32-2.41-1.36-8.82-2.14-13.54a13.41,13.41,0,0,1,1.57.25c-4.62-1-12,.29-10.27,5,.91,2.48,2.12,7.39,3.21,10.86s2.42,7.15,1.78,9.66-2.29,6.76-2.29,12.48.64,17.8-.19,19.59-1.61,3.49-1.16,4.58,4.48,1.48,7.62,3.55a3.54,3.54,0,0,0,2.79.5A3.54,3.54,0,0,1,176.82,225.49Z"/><path class="cls-72" d="M164.38,143.63l16.46.68,1.41,16.25c.39,4.43.41,20.91.41,20.91s-4.65,2.41-8.63,1.63-14.23-5.1-14.23-5.1-.32-4.38-.56-8.4-1.85-9.66.25-17C160.64,148.61,164.38,143.63,164.38,143.63Z"/><path class="cls-72" d="M169.52,218s-1.42,2.2-1,4.12,1.5,2.06,1.5,3.45v2.51l.84.32.92-.34v-4.41a6.71,6.71,0,0,1,3.66,1.55,6.28,6.28,0,0,0,6.21.94c1.5-.77,4.3-4.67,3.58-5.44s-6.15.62-6.15.62,1.76.33,2,1.16a1.87,1.87,0,0,1-2.46,2c-1.39-.62-2.71-2.45-5.45-3.57S169.69,218.43,169.52,218Z"/><path class="cls-73" d="M182.25,160.56l-1.39-16-3.47.61s-.32,12.74-.42,18.54c-.08,4.56.49,15.62.73,19.21a18.86,18.86,0,0,0,5-1.61S182.64,165,182.25,160.56Z"/><path class="cls-6" d="M160.19,116.7c-1.29,2.86-3.19,12.83-2.42,15.79.51,1.93,5.08,13.17,5.08,13.17l3.79-5.33Z"/><path class="cls-74" d="M174.67,118.87c1.67,1.41,7,5.4,8,8.35s.08,4.35-.45,6.62c-.58,2.51-1.61,4.18-1.16,8.93s1.53,17.76,1.72,19.3-1.46,2.16-3,2.41-10,.58-14.65-1.22-7.32-2.14-7.32-3.23a26.46,26.46,0,0,1,2.33-10.79c2.27-4.68,4.13-9,3.93-11.46s-4.47-13.67-4.27-17.65,1.93-7.52,4.75-6.62S174.67,118.87,174.67,118.87Z"/><path class="cls-6" d="M182.19,133.84c.53-2.27,1.41-3.66.45-6.62a6.78,6.78,0,0,0-5.59-4.39c-2.06,0-4.24.77-4.72,3.13-.94,4.61,2.34,8.12,4.43,14.66,3,9.51,1.7,12.55.93,16.11a15.42,15.42,0,0,1-4.85,7.87H173l1,0h.29l1,0h1.39l.91,0a20.73,20.73,0,0,0,2.17-.17c1.54-.26,3.2-.87,3-2.41s-1.27-14.55-1.72-19.3S181.6,136.35,182.19,133.84Z"/><path class="cls-71" d="M175.67,98.4c1.93,1.53,3.23,7,2,10.79s-2.84,4.07-3.49,4.4-2,2.87-1.19,4.35-5.93,1.23-7.42,0-1.55-1.58-1.55-1.58,1.55-2.39.84-4.14-3.75-8.14,0-12.54A7.91,7.91,0,0,1,175.67,98.4Z"/><path class="cls-5" d="M165.16,114.24a6.19,6.19,0,0,0,3.34,1.51c2.28.39,3.47.06,4.24.61a11.33,11.33,0,0,1,1.86,2.15,6.69,6.69,0,0,0-3.08-1.28c-1.61-.13-4.66-.16-5.72-.9s-.87-1.22-.87-1.41A2.67,2.67,0,0,1,165.16,114.24Z"/><path class="cls-75" d="M165.5,113.71s-3,1.63-2.74,3.24,2.86,3.2,5.72,3,4.49-.55,5.87.06,3.73,1.77,3.73,1.77-2.53-4.11-4.68-4.46-4.93-.09-6.22-.73-2.08-.85-2.24-1.65A1.16,1.16,0,0,1,165.5,113.71Z"/><path class="cls-74" d="M165.5,113.71s-2.94,1-2.69,2.56,3,3.14,5.83,2.91,4.59-.29,6,.32a24,24,0,0,1,3.47,2.25s-2.53-4.11-4.68-4.46-4.93-.09-6.22-.73-2.08-.85-2.24-1.65A1.16,1.16,0,0,1,165.5,113.71Z"/><path class="cls-74" d="M174.82,119.19c-1.38-.61-3.12-.55-6-.32s-4.48-1.27-4.72-2.86a2,2,0,0,1,.26-1.32,2.14,2.14,0,0,0-.47,1.64c.24,1.58,1.86,3.08,4.72,2.86s4.59-.29,6,.32a24,24,0,0,1,3.47,2.25s-.24-.39-.64-.94A17.73,17.73,0,0,0,174.82,119.19Z"/><path class="cls-71" d="M190.67,134.52c3.39-3.81,5.23-5.88,5.39-7.36a17.39,17.39,0,0,1,.89-4.08,7,7,0,0,1,1.68-2.66c.46-.3,1.22-.07.85.85s-1.25,2.37-.36,2.33,2.35-2.51,2.37-3-.66-1.56-.12-2,1.53.87,1.63,1.46a5.36,5.36,0,0,1,0,1.26s.28,0,.38.53a4.19,4.19,0,0,1-.07,1.32s.16-.12.26.48.07,2.53-.62,3.23-2.65,2.19-3.29,2.8-5.39,7.36-5.39,7.36Z"/><path class="cls-70" d="M203,125.45c-.69.71-2.65,2.19-3.29,2.8s-5.39,7.36-5.39,7.36l-2.84-2-.84.94,3.62,2.6s4.75-6.75,5.39-7.36,2.6-2.09,3.29-2.8.71-2.3.64-3A2.88,2.88,0,0,1,203,125.45Z"/><path class="cls-5" d="M193.54,130.6l.64-2.08s4.09,3,3.85,3.67a16.66,16.66,0,0,1-1.47,1.59Z"/><path class="cls-74" d="M193.5,129.85s1.46,1.09,2.28,1.68a7.47,7.47,0,0,1,1.51,1.61s-7.32,10.32-8,11.27-2.86,4.31-5.65,3.58-9.07-13.9-10.06-15.65-3-7,.43-9.24,6.36,1.25,7,4,4.35,12.27,4.35,12.27S191.37,131.79,193.5,129.85Z"/><path class="cls-6" d="M196.86,132.57c-1.19,1.68-7.18,10.12-7.8,11s-2.86,4.31-5.65,3.58-9.07-13.9-10.06-15.65a12.45,12.45,0,0,1-1-2.36,12.81,12.81,0,0,0,1.22,3.23c1,1.74,7.26,14.92,10.06,15.65s5-2.63,5.65-3.58,8-11.27,8-11.27S197.13,132.89,196.86,132.57Z"/><path class="cls-70" d="M202.57,121.79a9.7,9.7,0,0,1-.59,1.88c-.24.33-.81,1.14-.81,1.14a3.29,3.29,0,0,0,1.05-1.1A12.26,12.26,0,0,0,202.57,121.79Z"/><path class="cls-70" d="M203.16,123.69a4.94,4.94,0,0,1-.48,1.38c-.24.26-.88.9-.88.9a4.46,4.46,0,0,0,1.05-.94A3,3,0,0,0,203.16,123.69Z"/><path class="cls-36" d="M178,103.69a4.31,4.31,0,0,0-2.89,3.08c-1.93-.87-2.4,1.11-2.42,1.65a5.51,5.51,0,0,1-.53,2.88c-1.13,2.77-3.66,3.34-6.29,2.82s-6-2.71-4.76-9.9a10.62,10.62,0,0,1,11.43-8.8C180.29,96.1,180,102.95,178,103.69Z"/><path class="cls-74" d="M164.42,97c2-.29,4.62-1.06,5.3,3.18s-.39,7.42-2.7,7.9S164.42,97,164.42,97Z"/><path class="cls-76" d="M172.7,109c-7.15,3.18-7.35-3.24-10.2-8.05l-.23,0h0q-.2.37-.38.77l0,0q-.16.37-.3.74l-.08.25c-.06.2-.13.39-.18.59s-.14.6-.2.9h0a16.35,16.35,0,0,0-.24,3.6c.26,4.35,2.81,5.87,5,6.29,2.63.51,5.16-.05,6.29-2.82A5.33,5.33,0,0,0,172.7,109Z"/><path class="cls-36" d="M167.21,97.53c-4.56-6.52-13,.38-9.82,10.5,3.37,10.79-3.76,15.79-3.76,15.79s6.13.08,11.84-8.19C170,109.09,170.59,102.34,167.21,97.53Z"/><path class="cls-76" d="M178,103.69c.78-.29,1.29-1.51,1.18-2.93a12.75,12.75,0,0,0-1.37,1.42c-1.54,1.93-2.82,1.73-2.7,4.59A4.31,4.31,0,0,1,178,103.69Z"/><path class="cls-69" d="M144.57,93.55h0c-2.55,0-5.55-2.14-7.65-5.45a.49.49,0,0,1-.06-.38.5.5,0,0,1,.24-.31l9.23-5.26a.51.51,0,0,1,.38,0,.5.5,0,0,1,.3.24c2.41,4.57,2.2,9.18-.5,10.72A3.85,3.85,0,0,1,144.57,93.55ZM138,88c1.88,2.75,4.46,4.56,6.53,4.56h0A2.86,2.86,0,0,0,146,92.2c2.1-1.2,2.23-5.07.35-8.94Z"/><path class="cls-69" d="M136.26,86.47l-.14,0a.5.5,0,0,1-.3-.24c-2.41-4.57-2.2-9.18.5-10.72a3.85,3.85,0,0,1,1.93-.49c2.55,0,5.55,2.14,7.65,5.45a.49.49,0,0,1,.06.38.5.5,0,0,1-.24.31l-9.23,5.26A.5.5,0,0,1,136.26,86.47Zm2-10.48a2.87,2.87,0,0,0-1.44.36c-2.1,1.2-2.23,5.07-.34,8.94l8.31-4.74C142.91,77.8,140.33,76,138.25,76Z"/></g></g></svg>