<svg xmlns="http://www.w3.org/2000/svg" xmlns:xlink="http://www.w3.org/1999/xlink" viewBox="0 0 240 240"><defs><style>.cls-1,.cls-52,.cls-67,.cls-73{fill:none;}.cls-2{isolation:isolate;}.cls-10,.cls-20,.cls-21,.cls-22,.cls-23,.cls-24,.cls-3,.cls-41,.cls-43,.cls-47,.cls-49,.cls-5,.cls-6,.cls-9,.cls-93{mix-blend-mode:multiply;}.cls-3{fill:url(#radial-gradient);}.cls-4{fill:url(#linear-gradient);}.cls-5{opacity:0.6;fill:url(#linear-gradient-2);}.cls-6{opacity:0.8;fill:url(#linear-gradient-3);}.cls-7,.cls-8{opacity:0.61;}.cls-14,.cls-7,.cls-8{mix-blend-mode:screen;}.cls-7{fill:url(#linear-gradient-4);}.cls-8{fill:url(#linear-gradient-5);}.cls-9{fill:url(#linear-gradient-6);}.cls-10{fill:url(#linear-gradient-7);}.cls-11{fill:url(#linear-gradient-8);}.cls-12{fill:url(#linear-gradient-9);}.cls-13{fill:url(#radial-gradient-2);}.cls-14{opacity:0.37;}.cls-15{fill:#0fcbd4;}.cls-16{fill:#231f20;}.cls-17{fill:url(#linear-gradient-10);}.cls-18{fill:#f4347f;}.cls-19{fill:#f2f2f2;}.cls-20,.cls-21,.cls-23,.cls-49{opacity:0.4;}.cls-20{fill:url(#linear-gradient-11);}.cls-21{fill:url(#linear-gradient-12);}.cls-22{fill:url(#linear-gradient-13);}.cls-23{fill:url(#linear-gradient-14);}.cls-24{fill:url(#radial-gradient-3);}.cls-25{fill:#fff128;}.cls-26{fill:#ffce16;}.cls-27{fill:#dadada;}.cls-28{fill:#007b5b;}.cls-29{fill:#ffa420;}.cls-30{fill:#ff9217;}.cls-31{fill:#00594b;}.cls-32{fill:#eef7f6;}.cls-33{fill:#cb403a;}.cls-34{fill:#ea4d47;}.cls-35{fill:#fed030;}.cls-36{fill:#f8e42b;}.cls-37{fill:#5de87a;}.cls-38{fill:#383838;}.cls-39{fill:#f08924;}.cls-40{fill:#191919;}.cls-41{fill:#d3d3d3;}.cls-42{fill:#cc9150;}.cls-43,.cls-47,.cls-49{fill:#adbcc3;}.cls-43{opacity:0.47;}.cls-44{fill:#ddecf2;}.cls-45{fill:#4d61d6;}.cls-46{fill:#374eaf;}.cls-47{opacity:0.15;}.cls-48{fill:#4c4434;}.cls-50{fill:#99571c;}.cls-51{font-size:6.18px;fill:#7a3d0a;font-family:FuturaBT-Medium, Futura Md BT;}.cls-52{stroke:#473733;stroke-width:4.95px;}.cls-52,.cls-67,.cls-73{stroke-miterlimit:10;}.cls-53{fill:#73605b;}.cls-54{fill:#604f4c;}.cls-55{fill:#aeaeae;}.cls-56{fill:#f9b9a3;}.cls-57{fill:#e89f89;}.cls-58{fill:#406d71;}.cls-59{fill:#315759;}.cls-60{fill:#002f39;}.cls-61{fill:#003a42;}.cls-62{fill:#723e2e;}.cls-63{fill:#1c1c23;}.cls-64{fill:#fff;}.cls-65{fill:#efefef;}.cls-66{fill:#594845;}.cls-67{stroke:#594845;stroke-linecap:round;stroke-width:1.77px;}.cls-68{fill:#decbc8;}.cls-69{fill:#f1e0dc;}.cls-70{fill:#ce6363;}.cls-71{clip-path:url(#clip-path);}.cls-72{fill:#954545;}.cls-73{stroke:#105d84;stroke-width:2.89px;}.cls-74{fill:#ff3159;}.cls-75{fill:#105d84;}.cls-76{fill:#dd1f4c;}.cls-77{fill:#e51c4c;}.cls-78{fill:#21acbf;}.cls-79{fill:#1499a3;}.cls-80{fill:#26c5d1;}.cls-81{fill:#119faa;}.cls-82{fill:#ff7f29;}.cls-83{fill:#ffac27;}.cls-84{fill:#ff6d2c;}.cls-85{fill:#064963;}.cls-86{fill:#bacbd5;}.cls-87{fill:#99b7c6;}.cls-88,.cls-93{fill:#c78b5b;}.cls-89{fill:#e5be84;}.cls-90{fill:#ead1b7;}.cls-91{fill:#f7eee5;}.cls-92{fill:#444248;}.cls-93{opacity:0.32;}</style><radialGradient id="radial-gradient" cx="-624.27" cy="-88.54" r="37.51" gradientTransform="translate(1486.33 225.74) scale(2.21 0.25)" gradientUnits="userSpaceOnUse"><stop offset="0" stop-color="#333"/><stop offset="1" stop-color="#fff" stop-opacity="0"/></radialGradient><linearGradient id="linear-gradient" x1="107.44" y1="40.15" x2="107.44" y2="180.84" gradientUnits="userSpaceOnUse"><stop offset="0" stop-color="#f9c01b"/><stop offset="1" stop-color="#f4347f"/></linearGradient><linearGradient id="linear-gradient-2" x1="107.43" y1="40.15" x2="107.43" y2="180.84" gradientUnits="userSpaceOnUse"><stop offset="0.24" stop-color="#fff"/><stop offset="0.44" stop-color="#f8f8f8"/><stop offset="0.73" stop-color="#e4e4e4"/><stop offset="1" stop-color="#ccc"/></linearGradient><linearGradient id="linear-gradient-3" x1="107.43" y1="60.86" x2="107.43" y2="84.23" gradientUnits="userSpaceOnUse"><stop offset="0" stop-color="#4d4d4d"/><stop offset="0.22" stop-color="#575757" stop-opacity="0.94"/><stop offset="0.45" stop-color="#757575" stop-opacity="0.77"/><stop offset="0.7" stop-color="#a7a7a7" stop-opacity="0.49"/><stop offset="0.94" stop-color="#ededed" stop-opacity="0.1"/><stop offset="1" stop-color="#fff" stop-opacity="0"/></linearGradient><linearGradient id="linear-gradient-4" x1="142.45" y1="119.1" x2="151.28" y2="119.1" gradientUnits="userSpaceOnUse"><stop offset="0" stop-opacity="0"/><stop offset="0.51" stop-color="#ccc"/><stop offset="1" stop-opacity="0"/></linearGradient><linearGradient id="linear-gradient-5" x1="-2714.66" y1="119.1" x2="-2705.83" y2="119.1" gradientTransform="matrix(-1, 0, 0, 1, -2642.24, 0)" xlink:href="#linear-gradient-4"/><linearGradient id="linear-gradient-6" x1="107.44" y1="193.66" x2="107.44" y2="198.39" gradientUnits="userSpaceOnUse"><stop offset="0" stop-color="#fff" stop-opacity="0"/><stop offset="1" stop-color="#b3b3b3"/></linearGradient><linearGradient id="linear-gradient-7" x1="107.44" y1="498.45" x2="107.44" y2="503.19" gradientTransform="matrix(1, 0, 0, -1, 0, 543)" xlink:href="#linear-gradient-6"/><linearGradient id="linear-gradient-8" x1="103.7" y1="35.91" x2="103.7" y2="37.56" gradientUnits="userSpaceOnUse"><stop offset="0" stop-color="#999"/><stop offset="1" stop-color="#333"/></linearGradient><linearGradient id="linear-gradient-9" x1="119.06" y1="36.82" x2="121.7" y2="36.82" gradientUnits="userSpaceOnUse"><stop offset="0"/><stop offset="0.48" stop-color="#999"/><stop offset="1"/></linearGradient><radialGradient id="radial-gradient-2" cx="120.38" cy="36.82" r="0.88" gradientUnits="userSpaceOnUse"><stop offset="0" stop-color="#1983ad"/><stop offset="1"/></radialGradient><linearGradient id="linear-gradient-10" x1="170.7" y1="20" x2="72.58" y2="51.17" gradientUnits="userSpaceOnUse"><stop offset="0" stop-color="#f9bc1e"/><stop offset="0" stop-color="#f9c01b"/><stop offset="0.06" stop-color="#f9b325"/><stop offset="0.28" stop-color="#f78645"/><stop offset="0.49" stop-color="#f6625e"/><stop offset="0.68" stop-color="#f54970"/><stop offset="0.86" stop-color="#f4397b"/><stop offset="1" stop-color="#f4347f"/></linearGradient><linearGradient id="linear-gradient-11" x1="107.44" y1="53.18" x2="107.44" y2="42.08" gradientUnits="userSpaceOnUse"><stop offset="0" stop-color="#fff"/><stop offset="1" stop-color="#b3b3b3"/></linearGradient><linearGradient id="linear-gradient-12" x1="107.44" y1="70.82" x2="107.44" y2="54.18" gradientUnits="userSpaceOnUse"><stop offset="0.16" stop-color="#fff"/><stop offset="0.35" stop-color="#f4f4f4"/><stop offset="0.67" stop-color="#d7d7d7"/><stop offset="1" stop-color="#b3b3b3"/></linearGradient><linearGradient id="linear-gradient-13" x1="66.78" y1="176.03" x2="140.86" y2="96.5" gradientTransform="translate(-23.51 239.77) rotate(-90)" gradientUnits="userSpaceOnUse"><stop offset="0" stop-color="#fff"/><stop offset="0.26" stop-color="#f8f8f8"/><stop offset="0.64" stop-color="#e4e4e4"/><stop offset="1" stop-color="#ccc"/></linearGradient><linearGradient id="linear-gradient-14" x1="138.61" y1="88.95" x2="86.15" y2="160.7" xlink:href="#linear-gradient-12"/><radialGradient id="radial-gradient-3" cx="-648.92" cy="-76.05" r="20.53" xlink:href="#radial-gradient"/><clipPath id="clip-path"><path class="cls-1" d="M177.39,88.29a9.91,9.91,0,0,1-3.15,0l-.85,1.21.86,2.47-5.95,30,3.18,4.07,4.22-3.34.73-30.41,1.45-3Z"/></clipPath></defs><title>Features Img</title><g class="cls-2"><g id="Layer_1" data-name="Layer 1"><g id="_Group_" data-name="&lt;Group&gt;"><ellipse id="_Ellipse_" data-name="&lt;Ellipse&gt;" class="cls-3" cx="104.5" cy="203.17" rx="83.03" ry="9.56"/><g id="_Group_2" data-name="&lt;Group&gt;"><rect id="_Path_" data-name="&lt;Path&gt;" x="63.43" y="35.5" width="88" height="167.2" rx="8.05" ry="8.05"/><path id="_Path_2" data-name="&lt;Path&gt;" class="cls-4" d="M147,39.16v151.1a3.66,3.66,0,0,1-3.66,3.66H71.49a3.66,3.66,0,0,1-3.66-3.66V39.16a3.66,3.66,0,0,1,3.66-3.66H84.12A2.31,2.31,0,0,1,86.27,37a6.42,6.42,0,0,0,6,4.17h30.6a6.42,6.42,0,0,0,6-4.17A2.31,2.31,0,0,1,131,35.5h12.34A3.66,3.66,0,0,1,147,39.16Z"/><path id="_Path_3" data-name="&lt;Path&gt;" class="cls-5" d="M147,39.16v151.1a3.66,3.66,0,0,1-3.66,3.66H71.49a3.66,3.66,0,0,1-3.66-3.66V39.16a3.66,3.66,0,0,1,3.66-3.66H84.12A2.31,2.31,0,0,1,86.27,37a6.42,6.42,0,0,0,6,4.17h30.6a6.42,6.42,0,0,0,6-4.17A2.31,2.31,0,0,1,131,35.5h12.34A3.66,3.66,0,0,1,147,39.16Z"/><path id="_Path_4" data-name="&lt;Path&gt;" class="cls-6" d="M151.43,60.28V78.44a5.2,5.2,0,0,1-2.29-4.31,5.21,5.21,0,0,1-10.43,0,5.21,5.21,0,0,1-10.43,0,5.22,5.22,0,0,1-10.43,0,5.21,5.21,0,0,1-10.43,0,5.21,5.21,0,0,1-10.43,0,5.22,5.22,0,0,1-10.43,0,5.21,5.21,0,0,1-10.43,0,5.21,5.21,0,0,1-10.43,0,5.2,5.2,0,0,1-2.29,4.31V60.28Z"/><g id="_Group_3" data-name="&lt;Group&gt;"><path id="_Path_5" data-name="&lt;Path&gt;" class="cls-7" d="M151.43,43.55v151.1a8.06,8.06,0,0,1-8.05,8.05h-1.5V35.5h1.5A8.06,8.06,0,0,1,151.43,43.55Z"/><path id="_Path_6" data-name="&lt;Path&gt;" class="cls-8" d="M63.44,43.55v151.1a8.06,8.06,0,0,0,8.05,8.05H73V35.5h-1.5A8.06,8.06,0,0,0,63.44,43.55Z"/><path id="_Path_7" data-name="&lt;Path&gt;" class="cls-9" d="M151.43,193.49v1.16a8.06,8.06,0,0,1-8.05,8.05H71.49a8.06,8.06,0,0,1-8.05-8.05v-1.16Z"/><path id="_Path_8" data-name="&lt;Path&gt;" class="cls-10" d="M151.43,44.72V43.55a8.06,8.06,0,0,0-8.05-8.05H71.49a8.06,8.06,0,0,0-8.05,8.05v1.16Z"/></g><g id="_Group_4" data-name="&lt;Group&gt;"><path id="_Path_9" data-name="&lt;Path&gt;" class="cls-11" d="M113.36,37.69H94.05a.88.88,0,0,1-.88-.88h0a.88.88,0,0,1,.88-.88h19.31a.88.88,0,0,1,.88.88h0A.88.88,0,0,1,113.36,37.69Z"/><g id="_Group_5" data-name="&lt;Group&gt;"><circle id="_Ellipse_2" data-name="&lt;Ellipse&gt;" class="cls-12" cx="120.38" cy="36.82" r="1.32"/><circle id="_Ellipse_3" data-name="&lt;Ellipse&gt;" class="cls-13" cx="120.38" cy="36.82" r="0.88"/></g></g><g id="_Group_6" data-name="&lt;Group&gt;" class="cls-14"><g id="_Group_7" data-name="&lt;Group&gt;"><g id="_Group_8" data-name="&lt;Group&gt;"><path id="_Path_10" data-name="&lt;Path&gt;" class="cls-15" d="M108.17,189.4H105a.94.94,0,0,1-.94-.94v-2a.28.28,0,1,1,.56,0v2a.37.37,0,0,0,.37.37h3.19a.37.37,0,0,0,.37-.37v-2a.28.28,0,0,1,.56,0v2A.94.94,0,0,1,108.17,189.4Z"/></g><g id="_Group_9" data-name="&lt;Group&gt;"><path id="_Path_11" data-name="&lt;Path&gt;" class="cls-15" d="M109.93,186.53a.28.28,0,0,1-.2-.08l-3.16-3.23-3.16,3.23a.28.28,0,1,1-.4-.39l3.36-3.44a.28.28,0,0,1,.4,0l3.36,3.44a.28.28,0,0,1-.2.48Z"/></g></g><g id="_Group_10" data-name="&lt;Group&gt;"><g id="_Group_11" data-name="&lt;Group&gt;"><g id="_Group_12" data-name="&lt;Group&gt;"><path id="_Path_12" data-name="&lt;Path&gt;" class="cls-15" d="M86.93,184H82.19a.28.28,0,0,1,0-.56h4.73a.28.28,0,0,1,0,.56Z"/></g><g id="_Group_13" data-name="&lt;Group&gt;"><path id="_Path_13" data-name="&lt;Path&gt;" class="cls-15" d="M86.93,186.25H82.19a.28.28,0,0,1,0-.56h4.73a.28.28,0,0,1,0,.56Z"/></g><g id="_Group_14" data-name="&lt;Group&gt;"><path id="_Path_14" data-name="&lt;Path&gt;" class="cls-15" d="M86.93,188.5H82.19a.28.28,0,0,1,0-.56h4.73a.28.28,0,0,1,0,.56Z"/></g></g><g id="_Group_15" data-name="&lt;Group&gt;"><path id="_Path_15" data-name="&lt;Path&gt;" class="cls-15" d="M128.75,188.33h-.84a2.37,2.37,0,1,1,0-4.73h3a.28.28,0,1,1,0,.56h-3a1.8,1.8,0,0,0,0,3.6h.84a.28.28,0,1,1,0,.56Z"/></g></g></g><path id="_Path_16" data-name="&lt;Path&gt;" class="cls-16" d="M142.65,35.5H72.26a7.18,7.18,0,0,0-7.18,7.18h84.76A7.18,7.18,0,0,0,142.65,35.5Z"/><path id="_Path_17" data-name="&lt;Path&gt;" class="cls-17" d="M145.1,38.42H69.82a2.64,2.64,0,0,0-2.64,2.64h80.56A2.64,2.64,0,0,0,145.1,38.42Z"/><g id="_Group_16" data-name="&lt;Group&gt;"><g id="_Group_17" data-name="&lt;Group&gt;"><g id="_Group_18" data-name="&lt;Group&gt;"><path id="_Path_18" data-name="&lt;Path&gt;" class="cls-18" d="M55.23,53.64H44.79L67.38,40.22h6.68Z"/><path id="_Path_19" data-name="&lt;Path&gt;" class="cls-19" d="M65.67,53.64H55.23L74.05,40.22h6.68Z"/><path id="_Path_20" data-name="&lt;Path&gt;" class="cls-18" d="M76.11,53.64H65.67L80.73,40.22h6.68Z"/><path id="_Path_21" data-name="&lt;Path&gt;" class="cls-19" d="M86.55,53.64H76.11L87.41,40.22h6.68Z"/><path id="_Path_22" data-name="&lt;Path&gt;" class="cls-18" d="M97,53.64H86.55l7.53-13.42h6.68Z"/><path id="_Path_23" data-name="&lt;Path&gt;" class="cls-19" d="M107.44,53.64H97l3.76-13.42h6.68Z"/><path id="_Path_24" data-name="&lt;Path&gt;" class="cls-18" d="M117.88,53.64H107.44V40.22h6.68Z"/><path id="_Path_25" data-name="&lt;Path&gt;" class="cls-19" d="M128.32,53.64H117.88l-3.76-13.42h6.68Z"/><path id="_Path_26" data-name="&lt;Path&gt;" class="cls-18" d="M138.76,53.64H128.32l-7.53-13.42h6.68Z"/><path id="_Path_27" data-name="&lt;Path&gt;" class="cls-19" d="M149.2,53.64H138.76L127.46,40.22h6.68Z"/><path id="_Path_28" data-name="&lt;Path&gt;" class="cls-18" d="M159.64,53.64H149.2L134.14,40.22h6.68Z"/><path id="_Path_29" data-name="&lt;Path&gt;" class="cls-19" d="M170.08,53.64H159.64L140.82,40.22h6.68Z"/></g></g><polygon id="_Path_30" data-name="&lt;Path&gt;" class="cls-20" points="147.49 40.22 140.68 40.22 74.19 40.22 67.38 40.22 44.79 53.64 74.19 53.64 140.68 53.64 170.08 53.64 147.49 40.22"/><g id="_Group_19" data-name="&lt;Group&gt;"><path id="_Path_31" data-name="&lt;Path&gt;" class="cls-18" d="M50.08,72.69h0a5.21,5.21,0,0,1-5.21-5.21V53.64H55.29V67.48A5.21,5.21,0,0,1,50.08,72.69Z"/><path id="_Path_32" data-name="&lt;Path&gt;" class="cls-19" d="M60.51,72.69h0a5.21,5.21,0,0,1-5.21-5.21V53.64H65.72V67.48A5.21,5.21,0,0,1,60.51,72.69Z"/><path id="_Path_33" data-name="&lt;Path&gt;" class="cls-18" d="M70.93,72.69h0a5.21,5.21,0,0,1-5.21-5.21V53.64H76.15V67.48A5.21,5.21,0,0,1,70.93,72.69Z"/><path id="_Path_34" data-name="&lt;Path&gt;" class="cls-19" d="M81.36,72.69h0a5.21,5.21,0,0,1-5.21-5.21V53.64H86.58V67.48A5.21,5.21,0,0,1,81.36,72.69Z"/><path id="_Path_35" data-name="&lt;Path&gt;" class="cls-18" d="M91.79,72.69h0a5.21,5.21,0,0,1-5.21-5.21V53.64H97V67.48A5.21,5.21,0,0,1,91.79,72.69Z"/><path id="_Path_36" data-name="&lt;Path&gt;" class="cls-19" d="M102.22,72.69h0A5.21,5.21,0,0,1,97,67.48V53.64h10.43V67.48A5.21,5.21,0,0,1,102.22,72.69Z"/><path id="_Path_37" data-name="&lt;Path&gt;" class="cls-18" d="M112.65,72.69h0a5.21,5.21,0,0,1-5.21-5.21V53.64h10.43V67.48A5.21,5.21,0,0,1,112.65,72.69Z"/><path id="_Path_38" data-name="&lt;Path&gt;" class="cls-19" d="M123.08,72.69h0a5.21,5.21,0,0,1-5.21-5.21V53.64h10.43V67.48A5.21,5.21,0,0,1,123.08,72.69Z"/><path id="_Path_39" data-name="&lt;Path&gt;" class="cls-18" d="M133.51,72.69h0a5.21,5.21,0,0,1-5.21-5.21V53.64h10.43V67.48A5.21,5.21,0,0,1,133.51,72.69Z"/><path id="_Rectangle_" data-name="&lt;Rectangle&gt;" class="cls-19" d="M138.72,53.64h10.43a0,0,0,0,1,0,0V67.48a5.21,5.21,0,0,1-5.21,5.21h0a5.21,5.21,0,0,1-5.21-5.21V53.64a0,0,0,0,1,0,0Z"/><path id="_Rectangle_2" data-name="&lt;Rectangle&gt;" class="cls-18" d="M149.15,53.64h10.43a0,0,0,0,1,0,0V67.48a5.21,5.21,0,0,1-5.21,5.21h0a5.21,5.21,0,0,1-5.21-5.21V53.64a0,0,0,0,1,0,0Z"/><path id="_Path_40" data-name="&lt;Path&gt;" class="cls-19" d="M164.79,72.69h0a5.21,5.21,0,0,1-5.21-5.21V53.64H170V67.48A5.21,5.21,0,0,1,164.79,72.69Z"/></g><path id="_Path_41" data-name="&lt;Path&gt;" class="cls-21" d="M159.58,53.64H44.86V67.48a5.21,5.21,0,0,0,10.43,0,5.21,5.21,0,1,0,10.43,0,5.21,5.21,0,0,0,5.21,5.21h0a5.21,5.21,0,0,0,5.21-5.21,5.21,5.21,0,0,0,5.21,5.21h0a5.21,5.21,0,0,0,5.21-5.21,5.21,5.21,0,1,0,10.43,0,5.21,5.21,0,1,0,10.43,0,5.21,5.21,0,0,0,5.21,5.21h0a5.21,5.21,0,0,0,5.21-5.21,5.21,5.21,0,1,0,10.43,0,5.21,5.21,0,1,0,10.43,0,5.21,5.21,0,0,0,10.43,0,5.21,5.21,0,0,0,5.21,5.21h0a5.21,5.21,0,0,0,5.21-5.21,5.21,5.21,0,0,0,10.43,0V53.64Z"/></g><g id="_Group_20" data-name="&lt;Group&gt;"><rect id="_Rectangle_3" data-name="&lt;Rectangle&gt;" class="cls-22" x="64.85" y="96.13" width="86.55" height="71.02" rx="6.05" ry="6.05" transform="translate(239.77 23.51) rotate(90)"/><rect id="_Rectangle_4" data-name="&lt;Rectangle&gt;" class="cls-19" x="73.34" y="88.21" width="69.57" height="84.86" rx="4.47" ry="4.47"/><rect id="_Rectangle_5" data-name="&lt;Rectangle&gt;" class="cls-23" x="73.34" y="88.21" width="69.57" height="84.86" rx="5.47" ry="5.47"/></g></g></g><g id="_Group_21" data-name="&lt;Group&gt;"><ellipse id="_Ellipse_4" data-name="&lt;Ellipse&gt;" class="cls-24" cx="49.94" cy="206.36" rx="45.44" ry="5.23"/></g><rect class="cls-25" x="77.56" y="113.31" width="9.85" height="11.59"/><path class="cls-26" d="M85.7,113.31a6.89,6.89,0,0,1,.87,3.39c0,3.46-2.46,6.27-5.49,6.27a5.08,5.08,0,0,1-3.52-1.46v3.39h9.85V113.31Z"/><rect class="cls-27" x="77.56" y="112.33" width="9.85" height="0.98"/><rect class="cls-27" x="77.56" y="124.9" width="9.85" height="0.98"/><path class="cls-28" d="M87.41,121.81a8.34,8.34,0,0,1-4.74.59,5.49,5.49,0,0,1-3.9-2.83,6.18,6.18,0,0,1-.55-2.72,4.88,4.88,0,0,1,.55-2.78,3.39,3.39,0,0,1,.9-.75H77.56V124.9h9.85Z"/><path class="cls-29" d="M87.41,114.48a10.89,10.89,0,0,0-1.46-.1c-3.19,0-5.78,1.35-5.78,3s2.59,3,5.78,3a10.89,10.89,0,0,0,1.46-.1Z"/><path class="cls-30" d="M86.57,116.7a6.85,6.85,0,0,1-1,3.68h.42a10.89,10.89,0,0,0,1.46-.1v-5.82a10.88,10.88,0,0,0-1.22-.09A7,7,0,0,1,86.57,116.7Z"/><path class="cls-31" d="M83.2,122.48a4.89,4.89,0,0,1-2.12.49,5.08,5.08,0,0,1-3.52-1.46v3.39h9.85v-3.09A8.61,8.61,0,0,1,83.2,122.48Z"/><rect class="cls-32" x="77.56" y="112.33" width="9.85" height="0.38"/><path class="cls-32" d="M86.27,124.9H77.56v.38h8.72a.19.19,0,0,0,0-.38Z"/><rect class="cls-33" x="77.24" y="92.91" width="9.35" height="13.48"/><polygon class="cls-34" points="86.59 92.91 77.24 106.4 77.24 92.91 86.59 92.91"/><ellipse class="cls-35" cx="81.91" cy="101.09" rx="2.7" ry="2.7"/><path class="cls-35" d="M81.91,96.11a3.31,3.31,0,0,1,3.27,2.82,3.31,3.31,0,1,0-6.53,0A3.31,3.31,0,0,1,81.91,96.11Z"/><path class="cls-36" d="M81.91,98.39a2.7,2.7,0,0,0-2.14,4.35l2.93-4.23A2.69,2.69,0,0,0,81.91,98.39Z"/><path class="cls-36" d="M81.91,95.12a3.29,3.29,0,0,0-3.27,3.81,3.3,3.3,0,0,1,5.26-2.15l.42-.61A3.29,3.29,0,0,0,81.91,95.12Z"/><path class="cls-37" d="M86.41,138.35v9.51a.6.6,0,0,1-.61.56H79.62a.6.6,0,0,1-.6-.56.14.14,0,0,1,0,0v-9.47c0-1.19,1.44-1.93,1.65-3.63a3,3,0,0,0,0-.39h4a3.71,3.71,0,0,0,0,.39C85,136.41,86.41,137.15,86.41,138.35Z"/><rect class="cls-38" x="79.01" y="139.95" width="7.4" height="4.22"/><path class="cls-38" d="M85.81,148.41v.1a.36.36,0,0,1,0,.08.44.44,0,0,1-.41.4H80a.44.44,0,0,1-.41-.4.39.39,0,0,1,0-.08v-.1Z"/><path class="cls-38" d="M85,133.52v.36a.3.3,0,0,0-.15,0,.32.32,0,0,0-.17.28v.12h-4v-.12a.33.33,0,0,0-.17-.28.3.3,0,0,0-.15,0v-.36Z"/><path class="cls-39" d="M85.26,132.12H80.16c0-.19.15-.32.28-.32H85C85.11,131.79,85.22,131.93,85.26,132.12Z"/><path class="cls-38" d="M85.27,132.24v1.29H80.15v-1.29a.65.65,0,0,1,0-.12h5.09A.59.59,0,0,1,85.27,132.24Z"/><path class="cls-40" d="M85,133.52v.36a.3.3,0,0,0-.15,0H80.52a.3.3,0,0,0-.15,0v-.36Z"/><polygon class="cls-39" points="79.01 141.37 80.01 142.96 80.06 142.4 81.36 144.18 79.01 144.18 79.01 141.37"/><polygon class="cls-39" points="86.41 142.76 85.41 141.17 85.36 141.73 84.06 139.95 86.41 139.95 86.41 142.76"/><path class="cls-41" d="M84.76,134.71h-4.1a3,3,0,0,0,0-.39h4A3.71,3.71,0,0,0,84.76,134.71Z"/><path class="cls-41" d="M86.41,147.85a.6.6,0,0,1-.61.56H79.62a.6.6,0,0,1-.6-.56Z"/><path class="cls-42" d="M83.64,152.49H81.78s-.05,0,0,.1L82,154.4l.14,1.19h1.19l.16-1.19.24-1.82C83.7,152.53,83.67,152.49,83.64,152.49Z"/><path class="cls-43" d="M83.69,152.59l-.24,1.82-.16,1.19h-.57v-3.11h.91S83.7,152.53,83.69,152.59Z"/><polygon class="cls-43" points="83.45 154.4 83.29 155.59 82.1 155.59 81.96 154.4 83.45 154.4"/><path class="cls-44" d="M84.51,169H80.9a2.15,2.15,0,0,1-1.42-.54A4.71,4.71,0,0,1,80,161a3.89,3.89,0,0,0,1.74-3.25v-2.45h1.88v2.44A3.9,3.9,0,0,0,85.4,161a4.7,4.7,0,0,1,.53,7.49A2.15,2.15,0,0,1,84.51,169Z"/><path class="cls-45" d="M78.72,163.94A4.27,4.27,0,0,0,80,168a1.77,1.77,0,0,0,1.2.47h3.06a1.77,1.77,0,0,0,1.2-.47,4.22,4.22,0,0,0,1.37-3.1,4.35,4.35,0,0,0-.1-1Z"/><path class="cls-46" d="M82.71,163.29c-3.5,0-4,.64-4,.64s.49.65,4,.65,4-.65,4-.65S86.21,163.29,82.71,163.29Z"/><rect class="cls-43" x="81.77" y="155.29" width="1.88" height="0.75"/><path class="cls-47" d="M86.27,165.3a4.34,4.34,0,0,0-2-3.65,3.59,3.59,0,0,1-1.6-3v-3.36h1v2.44A3.9,3.9,0,0,0,85.4,161a4.7,4.7,0,0,1,.53,7.49,2.15,2.15,0,0,1-1.42.53h-1a2,2,0,0,0,1.3-.49A4.33,4.33,0,0,0,86.27,165.3Z"/><path class="cls-48" d="M81.68,155.35h2.06a.25.25,0,0,0,.25-.25h0a.25.25,0,0,0-.25-.25H81.68a.25.25,0,0,0-.25.25h0A.25.25,0,0,0,81.68,155.35Z"/><ellipse class="cls-49" cx="82.71" cy="168.45" rx="2.82" ry="0.44"/><rect class="cls-50" x="90.28" y="99.02" width="15.85" height="1.26"/><rect class="cls-50" x="90.28" y="118.47" width="15.85" height="1.26"/><rect class="cls-50" x="90.28" y="139.95" width="15.85" height="1.26"/><rect class="cls-50" x="90.28" y="161.43" width="15.85" height="1.26"/><text class="cls-51" transform="translate(117.24 98.79)">20%<tspan x="-6.03" y="4.95">Discount</tspan></text><text class="cls-51" transform="translate(117.24 117.39)">10%<tspan x="-6.03" y="4.95">Discount</tspan></text><text class="cls-51" transform="translate(117.24 140.58)">20%<tspan x="-6.03" y="4.95">Discount</tspan></text><text class="cls-51" transform="translate(117.24 161.43)">15%<tspan x="-6.03" y="4.95">Discount</tspan></text><path class="cls-52" d="M196.15,148.72s-.75-2.46,3.21-3.66,6.21.52,6.94,3.51"/><path class="cls-53" d="M184.8,150l30.7-4.33,5,21.87s-11.09,5.69-33.1,4.67Z"/><path class="cls-54" d="M191.73,161.27s17.27-1.33,26.36-4.11l-.27-1.18s-8,3-26.3,4.3Z"/><polygon class="cls-55" points="202.74 158.1 203.12 160.4 210.85 158.97 210.53 157.01 202.74 158.1"/><path class="cls-56" d="M203.84,145.78l0-.07c.71-3.21-1.12-4.05-1.12-4.05L200.37,121l-5.75,4.31.8-.29,2.4,16.23a3.34,3.34,0,0,0-1.3,4.64l1.54-1a1,1,0,0,1,.15,1.28s-.54-.15-.84.63a1.26,1.26,0,0,0,2,.23h0a1.38,1.38,0,0,0,1.87,0,2,2,0,0,0,2.51-1h0a1.2,1.2,0,0,0,.12-.26Z"/><path class="cls-54" d="M189.32,149.41l-4.52.64,2.56,22.21c2.33.11,4.54.14,6.63.11Z"/><path class="cls-56" d="M143.32,109.63,137,91.5a11.2,11.2,0,0,1-4.15-.27s-1.73-1.22-.73-1.82a1.22,1.22,0,0,1-.81-1.77s-1.47-1.28-.36-2.22c0,0-1.18-1.16.83-1.88a12.46,12.46,0,0,1,5-.26s-1.44-3.29-.32-4.81c.92-1.24,2.45,4.83,2.45,4.83l10.35,27.64Z"/><path class="cls-57" d="M195.68,126.82q2.49-1.36,5.05-2.62l-.37-3.2-5.75,4.31.8-.29Z"/><path class="cls-57" d="M145.25,100.38q-1.92,1.82-3.92,3.56l2,5.69,5.88,1.31Z"/><polygon class="cls-58" points="163.36 197.55 164.74 206.71 168.38 206.77 167.36 196.81 163.36 197.55"/><polygon class="cls-58" points="185.17 201.28 186.73 210.41 190.37 210.41 189.15 200.47 185.17 201.28"/><path class="cls-59" d="M168,202.7l-.61-5.89-4,.73.77,5.09A32.3,32.3,0,0,0,168,202.7Z"/><path class="cls-59" d="M189.65,204.49l-.49-4-4,.8.66,3.86C187.07,204.91,188.39,204.77,189.65,204.49Z"/><path class="cls-60" d="M191.2,202.44l-7.75-74.93-.41,0c-3.1-6.41-15-.58-19.71,2l-1.73-.25c-.24,1.42-5.82,35.18.85,71.87a8.53,8.53,0,0,0,7-1.09c-2.66-16.06-2.49-43-.63-56,2.68.44,3.82.07,6.87-.14,0,0,6.5,52.56,7.84,59.22A8.7,8.7,0,0,0,191.2,202.44Z"/><polygon class="cls-61" points="170.61 134.75 170.45 142.34 172.67 142.47 172.63 144.26 173.07 144.22 173.53 135.14 170.61 134.75"/><polygon class="cls-57" points="172.2 79.33 171.99 92.81 181.01 89.47 181.31 75.6 172.2 79.33"/><path class="cls-56" d="M188.92,61.61c-1.84-.49-3.07.77-3.81,2-.27-4.53-.55-8.62-.55-8.62s-1.66-4.84-9.8-4.11l-7.36.66s-3.24,22.27-1.66,24.79c1.31,2.08,4.93,5,8.85,4.66s11-2.47,11-6.42c0-.89-.05-2.37-.14-4.13C190.7,71.29,192.31,62.52,188.92,61.61Z"/><path class="cls-57" d="M188.54,63.06c-1.93-.57-2.78,2.32-2.9,2.77a2.29,2.29,0,0,1,1,3.29C189.67,69.38,190.58,63.66,188.54,63.06Z"/><path class="cls-62" d="M185.64,63.31,185.11,66h-1.53V56.84s-3.3-1.81-3-5.1a29.42,29.42,0,0,1-6.5,2c-2.49.38-12,1.65-11.85-7.16,0,0,1.59,3,3.69,3.21,0,0-5.12-2.72-1.47-7.73,0,0-.46,2.63,1.47,2.39s8.07-5.92,13.59-4,5.63,5.27,5.63,5.27,5.59-.08,6,2.88-3.43,13-3.43,13S185.64,61.94,185.64,63.31Z"/><path class="cls-62" d="M175.23,58.43s4.33-.92,5.5,1c0,0,1.26-1.88-.54-2.63a7.39,7.39,0,0,0-4.71-.2C174.61,56.88,174.18,58.21,175.23,58.43Z"/><path class="cls-62" d="M171.32,58.44s-3.76-1.17-5,.66c0,0-.74-2,1-2.43a8.1,8.1,0,0,1,4.26,0C172.38,57,172.22,58.43,171.32,58.44Z"/><ellipse class="cls-63" cx="178.93" cy="61.76" rx="1.05" ry="1.75"/><ellipse class="cls-63" cx="170.46" cy="61.76" rx="1.05" ry="1.75"/><polygon class="cls-57" points="173.21 60.01 169.82 69.01 174.39 69.94 173.21 60.01"/><path class="cls-64" d="M170.58,72.09,180,70.83a6.05,6.05,0,0,1-4.71,4.11A4.1,4.1,0,0,1,170.58,72.09Z"/><path class="cls-65" d="M159.32,91.07s1,27.17,2.07,39.45c0,0,4.52,2,13.85,2,6.59,0,8.54-1.39,8.54-1.39l12.35-42.45a85.21,85.21,0,0,0-16-1.87L175.29,91s-1.13-3.46-3.6-4.23c-3.79.12-7.93.43-12.37,1Z"/><polygon class="cls-65" points="195.12 124.65 189.15 89.96 196.14 88.65 201.06 122 195.12 124.65"/><path class="cls-65" d="M159.32,87.77l-10.66,17.77-1.29-2.34c-1.69,1.77-3.33,3.59-5.05,5.32,1.83,5.07,3.79,9.31,5.1,8.86,3.12-1.07,13.45-16.7,13.45-16.7Z"/><path class="cls-53" d="M164.54,132a26.34,26.34,0,0,1-3-.84c-.55-.18-.75.28-.82.82-.1.71-.18,1,.32,1.18a25.55,25.55,0,0,0,3.08.95Z"/><path class="cls-53" d="M178.18,132.82a62.67,62.67,0,0,1-7,.05,38.06,38.06,0,0,1-5.12-.56,9.1,9.1,0,0,1-.23,2.18,36.16,36.16,0,0,0,5.26.59q1.23,0,2.4,0c1.75,0,3.36-.06,4.88-.2A9.91,9.91,0,0,1,178.18,132.82Z"/><path class="cls-53" d="M184.39,132.74c-.1-.54-.16-1-.72-.85a23.52,23.52,0,0,1-4.11.8c0,.7.13,1.4.23,2.09a23.76,23.76,0,0,0,4.31-.94C184.5,133.71,184.49,133.29,184.39,132.74Z"/><path class="cls-55" d="M169.78,132.5v2.64l4.92.32v-2.85Zm4.09,2.46-3.25-.21V133l3.25.08Z"/><path class="cls-53" d="M163.16,204.81a11.65,11.65,0,0,1-5.23,3.55c-3.15.92-7.39,2.77-7.16,4.62a26.69,26.69,0,0,0,13.7-.92v.78l5-.21v-6.47l-4.15.28.31-.64Z"/><path class="cls-66" d="M160.11,212.49c-5.74,1.46-8.91.15-9.3,0a1.23,1.23,0,0,0,0,.48,26.69,26.69,0,0,0,13.7-.92v.78l5-.21v-1.29A40.09,40.09,0,0,0,160.11,212.49Z"/><path class="cls-67" d="M161.56,206.38a5.27,5.27,0,0,1,2.29,2"/><path class="cls-67" d="M160.42,206.88a5.27,5.27,0,0,1,2.29,2"/><path class="cls-67" d="M159.27,207.37a5.27,5.27,0,0,1,2.29,2"/><path class="cls-53" d="M191.48,206.08a11.65,11.65,0,0,0,5.23,3.55c3.15.92,7.39,2.77,7.16,4.62a26.69,26.69,0,0,1-13.7-.92v.78l-5-.21v-6.47l4.15.28-.31-.64Z"/><path class="cls-66" d="M194.52,213.75c5.74,1.46,8.91.15,9.3,0a1.23,1.23,0,0,1,0,.48,26.69,26.69,0,0,1-13.7-.92v.78l-5-.21v-1.29A40.09,40.09,0,0,1,194.52,213.75Z"/><path class="cls-67" d="M193.07,207.65a5.27,5.27,0,0,0-2.29,2"/><path class="cls-67" d="M194.22,208.15a5.27,5.27,0,0,0-2.29,2"/><path class="cls-67" d="M195.36,208.64a5.27,5.27,0,0,0-2.29,2"/><polygon class="cls-68" points="175.29 91 176.65 86.77 179.28 88.12 175.29 91"/><polygon class="cls-68" points="175.09 87.08 175.29 91 173.2 88.15 175.09 87.08"/><polygon class="cls-69" points="169.06 86.6 172.17 91.23 175.09 87.08 170.86 83.97 169.06 86.6"/><polygon class="cls-69" points="183.14 86.52 178.8 91.23 176.65 86.77 181.57 83.78 183.14 86.52"/><path class="cls-70" d="M177.39,88.29a9.91,9.91,0,0,1-3.15,0l-.85,1.21.86,2.47-5.95,30,3.18,4.07,4.22-3.34.73-30.41,1.45-3Z"/><path class="cls-69" d="M178.69,100.82l11.08.83s-.51,9.94-6.63,9.26C175.63,110.08,178.69,100.82,178.69,100.82Z"/><path class="cls-70" d="M187,101.44s.31-4.61,1.06-4.68.29,8.19-.53,8.33a15.14,15.14,0,0,1,.19-3.59Z"/><g class="cls-71"><polygon class="cls-72" points="166.83 94.55 166.17 92.92 181.45 87.64 182.11 89.28 166.83 94.55"/><polygon class="cls-72" points="166.83 98.86 166.17 97.22 181.45 91.94 182.11 93.58 166.83 98.86"/><polygon class="cls-72" points="166.83 103.16 166.17 101.53 181.45 96.25 182.11 97.89 166.83 103.16"/><polygon class="cls-72" points="166.83 107.47 166.17 105.83 181.45 100.56 182.11 102.19 166.83 107.47"/><polygon class="cls-72" points="166.83 111.78 166.17 110.14 181.45 104.86 182.11 106.5 166.83 111.78"/><polygon class="cls-72" points="166.83 116.08 166.17 114.45 181.45 109.17 182.11 110.81 166.83 116.08"/><polygon class="cls-72" points="166.83 120.39 166.17 118.75 181.45 113.48 182.11 115.11 166.83 120.39"/><polygon class="cls-72" points="166.83 124.7 166.17 123.06 181.45 117.78 182.11 119.42 166.83 124.7"/></g><polygon class="cls-69" points="193.03 120.59 201.49 118.15 202.16 122.57 194.27 125.37 193.03 120.59"/><path class="cls-69" d="M146.49,101.65l2.16,3.37s-3.18,6.82-5.65,8.38l-2.48-5.88Z"/><path class="cls-73" d="M141.5,159.63s-3.77-10.12-7.71-6.84c-2.55,2.12,3.15,5.19,5.6,6.36a4.87,4.87,0,0,0,2.11.48Z"/><path class="cls-73" d="M140.94,159.63s3.77-10.12,7.71-6.84c2.55,2.12-3.15,5.19-5.6,6.36a4.87,4.87,0,0,1-2.11.48Z"/><rect class="cls-74" x="152.21" y="156.14" width="23" height="21" transform="translate(-2.93 330.36) rotate(-90)"/><rect class="cls-74" x="152.21" y="156.14" width="23" height="21" transform="translate(-2.93 330.36) rotate(-90)"/><path class="cls-74" d="M141.7,132.66l-2.94,2.94-2.94,2.94a1.08,1.08,0,0,0,0,1.53l7,7a2.08,2.08,0,0,0,2.17.49l3.72-1.34a1.1,1.1,0,0,0,.66-.66l1.34-3.72a2.08,2.08,0,0,0-.49-2.17l-7-7A1.08,1.08,0,0,0,141.7,132.66Zm6.78,12.65a.65.65,0,1,1,0-.92A.65.65,0,0,1,148.47,145.3Z"/><path class="cls-64" d="M142.21,139.8a1.81,1.81,0,0,1,.59,1,1,1,0,0,1-.33.86,1,1,0,0,1-.85.31,1.8,1.8,0,0,1-1-.58q-1-1-.26-1.83a1,1,0,0,1,.86-.32A1.77,1.77,0,0,1,142.21,139.8Zm-1,1a1.92,1.92,0,0,0,.48.38.25.25,0,0,0,.31,0q.22-.22-.36-.79t-.79-.35a.25.25,0,0,0,0,.31A1.89,1.89,0,0,0,141.21,140.81Zm1.58-3.58,1.49,5.19-.55.55-1.49-5.19Zm3.1,1.56a1.8,1.8,0,0,1,.58,1,1,1,0,0,1-.33.86,1,1,0,0,1-.85.31,1.8,1.8,0,0,1-1-.57q-1-1-.26-1.83a1,1,0,0,1,.86-.32A1.77,1.77,0,0,1,145.88,138.79Zm-1,1a1.92,1.92,0,0,0,.48.38.25.25,0,0,0,.31,0q.22-.22-.36-.79t-.79-.35a.25.25,0,0,0,0,.31A1.89,1.89,0,0,0,144.88,139.81Z"/><path class="cls-75" d="M154.33,148.92a5.43,5.43,0,0,1,2.46,2.94,9.91,9.91,0,0,1,.8,3.3h.33a10.24,10.24,0,0,0-.83-3.43,5.74,5.74,0,0,0-2.62-3.1,4.59,4.59,0,0,0-1.59-.42,3.18,3.18,0,0,0-.68-1.22,6.84,6.84,0,0,0-4.29-2.31.16.16,0,0,0,0,.33,6.49,6.49,0,0,1,4.07,2.19,3,3,0,0,1,.59,1,7.85,7.85,0,0,0-.83,0,2.06,2.06,0,0,0-.83.19.9.9,0,0,0-.52.76.93.93,0,0,0,.32.68,1.37,1.37,0,0,0,1.85,0,1.59,1.59,0,0,0,.41-1.25A4.21,4.21,0,0,1,154.33,148.92Zm-2,.64a1,1,0,0,1-1.39,0,.61.61,0,0,1-.21-.43.59.59,0,0,1,.34-.47,1.78,1.78,0,0,1,.7-.15l.57,0h.32A1.27,1.27,0,0,1,152.3,149.56Z"/><rect class="cls-76" x="171.28" y="155.15" width="2.94" height="23"/><rect class="cls-77" x="162.19" y="166.12" width="3.04" height="21" transform="translate(-12.91 340.34) rotate(-90)"/><rect class="cls-78" x="155.69" y="165.15" width="23" height="2.98" transform="translate(0.55 333.84) rotate(-90)"/><rect class="cls-79" x="165.7" y="175.1" width="2.98" height="3.04"/><rect class="cls-78" x="130.57" y="174.89" width="31.74" height="23.07"/><rect class="cls-80" x="130.57" y="174.89" width="2.09" height="23.07"/><rect class="cls-81" x="153.37" y="174.89" width="8.95" height="23.07"/><rect class="cls-64" x="150.52" y="193.01" width="5.76" height="2.88"/><rect class="cls-82" x="132.58" y="159.63" width="29.41" height="15.29"/><rect class="cls-83" x="132.58" y="159.63" width="1.45" height="15.29"/><rect class="cls-75" x="140.4" y="159.63" width="1.54" height="15.29"/><rect class="cls-75" x="132.58" y="163.49" width="29.41" height="1.54"/><rect class="cls-84" x="132.58" y="172.04" width="29.41" height="2.87"/><rect class="cls-82" x="160.41" y="180.13" width="19.76" height="15.88" transform="translate(-17.78 358.35) rotate(-90)"/><rect class="cls-83" x="162.35" y="178.19" width="1.42" height="19.76"/><rect class="cls-84" x="174.58" y="178.19" width="3.65" height="19.76"/><rect class="cls-85" x="140.4" y="172.05" width="1.55" height="2.87"/><rect class="cls-85" x="140.4" y="172.05" width="1.55" height="2.87"/><circle class="cls-75" cx="163.09" cy="217.53" r="5.27"/><circle class="cls-82" cx="163.09" cy="217.53" r="2.89"/><path class="cls-86" d="M163.09,219.34h0a1.66,1.66,0,0,1-1.66-1.66v-7.61h3.32v7.61A1.66,1.66,0,0,1,163.09,219.34Z"/><rect class="cls-87" x="161.42" y="210.07" width="3.32" height="1.16"/><circle class="cls-75" cx="138.08" cy="217.53" r="5.27"/><circle class="cls-82" cx="138.08" cy="217.53" r="2.89"/><path class="cls-86" d="M138.08,219.34h0a1.66,1.66,0,0,1-1.66-1.66v-7.61h3.32v7.61A1.66,1.66,0,0,1,138.08,219.34Z"/><rect class="cls-87" x="136.42" y="210.07" width="3.32" height="1.16"/><path class="cls-86" d="M188.41,162.58a4.9,4.9,0,0,0-4.84,4H122l4,25a9.14,9.14,0,0,0,9,7.72h40.76a2.22,2.22,0,0,1,2.19,2.57h0c0,.29-.11.58-.18.87a8.79,8.79,0,0,1-8.49,6.55H127.38a.73.73,0,1,0,0,1.47h41.91a10.25,10.25,0,0,0,9.91-7.64c.09-.33.16-.67.21-1l5.5-34.69L185,167a3.46,3.46,0,0,1,3.41-2.91H205v-1.47ZM127.22,190l-1-6.58h10l.46,6.58Zm8.88-8H125.95l-1-6.21h10.7Zm.51-13.9H147l.14,6.22H137ZM181.13,182h-9.87l.43-6.21h10.43ZM160,182l.14-6.21h10.05l-.43,6.21Zm9.66,1.47-.46,6.58h-9.39l.15-6.58Zm-9.48-9.14.14-6.22h10.41l-.43,6.22ZM148.8,182l-.14-6.21H158.7l-.14,6.21Zm9.73,1.47-.15,6.58H149l-.15-6.58Zm-9.91-9.14-.14-6.22h10.41l-.14,6.22ZM147.52,190h-9.39l-.46-6.58h9.7Zm-.33-14.25.14,6.21h-9.76l-.43-6.21Zm-9,15.72h9.32l.15,6.41h-9Zm10.79,0h9.33l-.15,6.41h-9Zm10.79,0h9.32l-.44,6.41h-9Zm10.79,0h9l-1,6.41h-8.45Zm.1-1.47.46-6.58h9.74l-1,6.58Zm11.65-15.72H171.79l.43-6.22h11.11Zm-47.22-6.22.43,6.22H124.74l-1-6.22Zm-7.68,23.4h9.3l.44,6.41H135A7.64,7.64,0,0,1,127.45,191.48Z"/><path class="cls-75" d="M204.26,160.95H191.53a.89.89,0,0,0-.89.89V165a.89.89,0,0,0,.89.89h12.74a2.45,2.45,0,0,0,2.45-2.45h0A2.45,2.45,0,0,0,204.26,160.95Z"/><path class="cls-75" d="M193,165v-3.11a.89.89,0,0,1,.89-.89h-2.37a.89.89,0,0,0-.89.89V165a.89.89,0,0,0,.89.89h2.37A.89.89,0,0,1,193,165Z"/><rect class="cls-88" x="26.09" y="154.38" width="24.01" height="34.88"/><rect class="cls-89" x="34.27" y="154.38" width="23.76" height="34.88"/><rect class="cls-90" x="44.64" y="154.38" width="5.57" height="7.19"/><rect class="cls-90" x="44.64" y="182.07" width="5.57" height="7.19"/><rect class="cls-91" x="35.62" y="183.53" width="7.35" height="4.44"/><rect class="cls-92" x="35.96" y="184.15" width="0.78" height="3.2"/><rect class="cls-92" x="37.22" y="184.15" width="0.27" height="3.2"/><rect class="cls-92" x="38.61" y="184.15" width="0.64" height="3.2"/><rect class="cls-92" x="37.8" y="184.15" width="0.39" height="3.2"/><rect class="cls-92" x="39.73" y="184.15" width="0.26" height="3.2"/><rect class="cls-92" x="40.98" y="184.15" width="0.53" height="3.2"/><rect class="cls-92" x="41.69" y="184.15" width="0.26" height="3.2"/><rect class="cls-92" x="40.38" y="184.15" width="0.36" height="3.2"/><rect class="cls-92" x="42.23" y="184.15" width="0.39" height="3.2"/><rect class="cls-93" x="37.07" y="166.79" width="20.96" height="22.47"/><rect class="cls-88" x="42.81" y="168.56" width="19.39" height="18.95"/><rect class="cls-89" x="48.35" y="168.56" width="19.22" height="18.95"/><rect class="cls-90" x="56.43" y="168.56" width="3.06" height="4.88"/><rect class="cls-90" x="56.43" y="182.63" width="3.06" height="4.88"/><rect class="cls-91" x="61.23" y="183.62" width="4.99" height="3.01"/><rect class="cls-92" x="61.46" y="184.04" width="0.53" height="2.17"/><rect class="cls-92" x="62.31" y="184.04" width="0.19" height="2.17"/><rect class="cls-92" x="63.25" y="184.04" width="0.43" height="2.17"/><rect class="cls-92" x="62.71" y="184.04" width="0.26" height="2.17"/><rect class="cls-92" x="64.01" y="184.04" width="0.18" height="2.17"/><rect class="cls-92" x="64.86" y="184.04" width="0.36" height="2.17"/><rect class="cls-92" x="65.34" y="184.04" width="0.18" height="2.17"/><rect class="cls-92" x="64.45" y="184.04" width="0.25" height="2.17"/><rect class="cls-92" x="65.71" y="184.04" width="0.26" height="2.17"/><rect class="cls-88" x="49.1" y="187.28" width="19.39" height="18.95"/><rect class="cls-89" x="54.64" y="187.28" width="19.22" height="18.95"/><rect class="cls-90" x="61.67" y="187.28" width="5.16" height="4.88"/><rect class="cls-90" x="61.67" y="201.36" width="5.16" height="4.88"/><rect class="cls-91" x="55.56" y="202.35" width="4.99" height="3.01"/><rect class="cls-92" x="55.79" y="202.77" width="0.53" height="2.17"/><rect class="cls-92" x="56.64" y="202.77" width="0.19" height="2.17"/><rect class="cls-92" x="57.59" y="202.77" width="0.43" height="2.17"/><rect class="cls-92" x="57.04" y="202.77" width="0.26" height="2.17"/><rect class="cls-92" x="58.35" y="202.77" width="0.18" height="2.17"/><rect class="cls-92" x="59.19" y="202.77" width="0.36" height="2.17"/><rect class="cls-92" x="59.68" y="202.77" width="0.18" height="2.17"/><rect class="cls-92" x="58.79" y="202.77" width="0.25" height="2.17"/><rect class="cls-92" x="60.04" y="202.77" width="0.26" height="2.17"/><rect class="cls-88" x="29.32" y="135.43" width="19.39" height="18.95"/><rect class="cls-89" x="34.86" y="135.43" width="19.22" height="18.95"/><rect class="cls-90" x="41.89" y="135.43" width="5.16" height="4.88"/><rect class="cls-91" x="35.78" y="150.49" width="4.99" height="3.01"/><rect class="cls-92" x="36.01" y="150.91" width="0.53" height="2.17"/><rect class="cls-92" x="36.86" y="150.91" width="0.19" height="2.17"/><rect class="cls-92" x="37.81" y="150.91" width="0.43" height="2.17"/><rect class="cls-92" x="37.26" y="150.91" width="0.26" height="2.17"/><rect class="cls-92" x="38.56" y="150.91" width="0.18" height="2.17"/><rect class="cls-92" x="39.41" y="150.91" width="0.36" height="2.17"/><rect class="cls-92" x="39.89" y="150.91" width="0.18" height="2.17"/><rect class="cls-92" x="39.01" y="150.91" width="0.25" height="2.17"/><rect class="cls-92" x="40.26" y="150.91" width="0.26" height="2.17"/><rect class="cls-88" x="14.34" y="176.75" width="30.17" height="29.48"/><rect class="cls-89" x="22.96" y="176.75" width="29.9" height="29.48"/><rect class="cls-90" x="33.9" y="176.75" width="8.02" height="7.59"/><rect class="cls-90" x="33.9" y="198.65" width="8.02" height="7.59"/><rect class="cls-91" x="24.39" y="200.19" width="7.76" height="4.69"/><rect class="cls-92" x="24.75" y="200.84" width="0.82" height="3.37"/><rect class="cls-92" x="26.07" y="200.84" width="0.29" height="3.37"/><rect class="cls-92" x="27.54" y="200.84" width="0.68" height="3.37"/><rect class="cls-92" x="26.69" y="200.84" width="0.41" height="3.37"/><rect class="cls-92" x="28.72" y="200.84" width="0.28" height="3.37"/><rect class="cls-92" x="30.04" y="200.84" width="0.56" height="3.37"/><rect class="cls-92" x="30.79" y="200.84" width="0.28" height="3.37"/><rect class="cls-92" x="29.41" y="200.84" width="0.38" height="3.37"/><rect class="cls-92" x="31.36" y="200.84" width="0.41" height="3.37"/></g></g></svg>